<?xml version="1.0" standalone="no"?>
<!DOCTYPE svg PUBLIC "-//W3C//DTD SVG 1.1//EN" "http://www.w3.org/Graphics/SVG/1.1/DTD/svg11.dtd">
<svg xmlns="http://www.w3.org/2000/svg">
<defs >
<font id="Catamaran" horiz-adv-x="583" ><font-face
    font-family="Catamaran Thin ExtraBold"
    units-per-em="1000"
    panose-1="0 0 0 0 0 0 0 0 0 0"
    ascent="1100"
    descent="-540"
    alphabetic="0" />
<glyph unicode=" " horiz-adv-x="222" />
<glyph unicode="!" horiz-adv-x="226" d="M51 246L175 202L192 708H33L51 246ZM113 165Q78 165 54 141T30 82Q30 47 54 24T113 0Q147 0 171 23T195 82Q195 117 171 141T113 165Z" />
<glyph unicode="&quot;" horiz-adv-x="424" d="M311 742Q288 742 269 730T239 698T228 659Q228 633 243 612T277 584Q271 562 254 545T217 512L250 442Q291 462 323 494T375 566T394 644Q394 688 370 715T311 742ZM113 742Q89 742 70 730T41 698T30 659Q30 642
37 627T56 600T79 584Q74 562 57 545T20 512L52 442Q93 462 126 494T178 566T197 644Q197 688 172 715T113 742Z" />
<glyph unicode="#" horiz-adv-x="616" d="M423 518L399 417H292L316 517L185 518L162 417H30L41 302H134L113 207H30L41 92H85L62 -10L191 -15L216 92H323L301 -10L430 -15L454 92H586L576 207H481L504 302H586L576 417H530L553 517L423 518ZM372 302L350 207H244L265
302H372Z" />
<glyph unicode="$" horiz-adv-x="537" d="M135 -123V5Q116 11 99 17T66 30T40 43L85 165Q104 155 132 145T191 127T248 120Q284 120 307 126T341 146T353 176Q353 196 336 212T291 245T236 278Q202 299 166 321T100 371T51 431T32 506Q33 562 64 605T153 673V792L256
804V694Q262 694 266 694T276 694Q284 694 291 694T307 693V792L411 804V669Q428 663 443 656T472 641L423 527Q395 539 372 546T327 558T278 563Q241 563 218 549T194 508Q194 487 210 472T253 442T309 408Q345 387 381 365T448 316T496 257T515 181Q515 126 484
82T395 13V-125H290V-12Q282 -12 272 -12T252 -13H238V-123H135Z" />
<glyph unicode="%" horiz-adv-x="953" d="M544 708L246 0L406 -2L705 706L544 708ZM196 702Q147 702 108 681T46 620T22 526Q22 471 44 432T105 371T193 350Q243 350 283 371T346 432T370 525Q370 580 347 619T285 680T196 702ZM197 593Q220 593 233 575T246 524Q246
502 240 488T222 465T195 457Q171 457 159 474T146 526Q146 549 153 563T171 585T197 593ZM758 352Q709 352 670 331T608 271T585 176Q585 121 607 82T668 21T755 0Q805 0 844 21T907 82T931 175Q931 230 909 270T847 331T758 352ZM759 244Q782 244 795 226T808
175Q808 153 802 138T784 115T757 107Q733 107 721 124T708 177Q708 200 715 214T733 236T759 244Z" />
<glyph unicode="&amp;" horiz-adv-x="686" d="M389 145Q371 132 350 124T305 116Q274 116 249 127T210 162T195 219Q196 240 202 259T222 295Q232 287 241 278T260 260L389 145ZM571 -17L664 98L586 164Q606 206 619 252T637 348L498 404Q495 369 488 334T468
267L323 394Q298 418 282 435T258 468T250 500Q250 517 258 531T283 555T324 565Q361 565 393 555T459 526L506 640Q464 667 415 681T312 696Q247 696 198 669T121 597T93 499Q93 470 101 446T124 399Q83 364 58 315T32 216Q32 138 69 87T167 9T303 -18Q361 -18
409 0T496 50L571 -17Z" />
<glyph unicode="&apos;" horiz-adv-x="227" d="M113 742Q89 742 70 730T41 698T30 659Q30 642 37 627T56 600T79 584Q74 562 57 545T20 512L52 442Q93 462 126 494T178 566T197 644Q197 688 172 715T113 742Z" />
<glyph unicode="(" horiz-adv-x="339" d="M308 -1Q288 25 269 64T234 148T210 238T201 322Q201 360 209 403T234 491T269 575T309 645L177 682Q137 624 109 566T65 447T50 321Q50 255 65 192T109 71T177 -39L308 -1Z" />
<glyph unicode=")" horiz-adv-x="339" d="M31 643Q52 618 71 579T105 495T128 405T137 321Q137 284 129 240T105 152T71 68T30 -2L162 -39Q202 19 230 77T274 196T289 322Q289 388 274 450T231 571T163 682L31 643Z" />
<glyph unicode="*" horiz-adv-x="406" d="M265 774H142L141 677L42 702L10 592L107 573L37 479L135 412L203 508L271 412L369 479L299 573L396 592L364 702L266 677L265 774Z" />
<glyph unicode="+" horiz-adv-x="561" d="M521 335H356V531L210 532V335H30L40 213H210V8L356 2V213H531L521 335Z" />
<glyph unicode="," horiz-adv-x="227" d="M113 147Q90 147 71 135T42 103T31 63Q31 46 38 31T56 4T80 -12Q74 -34 57 -51T20 -83L53 -154Q94 -135 126 -102T178 -30T197 48Q197 92 173 119T113 147Z" />
<glyph unicode="-" horiz-adv-x="342" d="M302 335H30L41 212H312L302 335Z" />
<glyph unicode="." horiz-adv-x="225" d="M114 0Q148 0 171 23T195 82Q195 117 172 141T114 165Q78 165 54 141T30 82Q30 47 54 24T114 0Z" />
<glyph unicode="/" horiz-adv-x="481" d="M308 708L10 0L172 -2L471 706L308 708Z" />
<glyph unicode="0" horiz-adv-x="642" d="M22 284Q22 198 60 131T167 25T321 -14Q408 -14 475 25T581 132T620 287Q620 371 582 437T477 541T322 579Q235 579 168 541T61 437T22 284ZM177 287Q177 335 195 371T247 428T321 450Q364 450 397 429T448 369T467 283Q467
235 449 198T397 139T322 117Q280 117 247 139T196 199T177 287Z" />
<glyph unicode="1" horiz-adv-x="404" d="M341 0V566H237L10 467L70 345L185 392V0H341Z" />
<glyph unicode="2" horiz-adv-x="492" d="M231 579Q164 579 115 562T38 527L61 401Q79 411 105 423T161 443T221 452Q265 452 291 437T317 390Q317 371 305 351T270 310T220 265L25 97V0H472L460 121H243L311 178Q358 218 389 252T437 323T453 403Q453 460 426
499T349 559T231 579Z" />
<glyph unicode="3" horiz-adv-x="511" d="M244 579Q184 579 128 562T20 507L94 402Q125 423 161 437T233 452Q261 452 279 445T307 424T317 394Q317 363 287 344T205 325H131L147 203H220Q274 203 301 182T329 123Q329 100 316 84T281 58T232 49Q193 49 158 60T82
97L0 -7Q51 -38 113 -57T231 -77Q307 -77 364 -51T452 20T483 121Q483 157 470 187T436 241T394 273Q413 282 431 302T460 350T472 404Q472 453 445 493T367 556T244 579Z" />
<glyph unicode="4" horiz-adv-x="586" d="M566 182H464V571H347L10 177L29 56H307V-66H464V56H555L566 182ZM307 330V182H188L307 330Z" />
<glyph unicode="5" horiz-adv-x="523" d="M204 193Q210 208 229 223T277 238Q312 238 335 215T359 151Q359 106 329 81T253 55Q212 55 178 66T100 102L22 -8Q54 -28 93 -44T173 -69T250 -78Q328 -78 383 -49T469 32T500 151Q500 208 476 257T404 336T285 366Q264
366 248 362T217 350L220 442H452L468 566H88L69 193H204Z" />
<glyph unicode="6" horiz-adv-x="556" d="M97 297L122 199Q146 226 172 246T227 278T287 290Q314 290 335 279T368 247T380 200Q380 176 369 157T337 126T294 114Q259 114 234 131T194 181T179 261Q179 314 197 351T247 412T315 453T392 479T466 496L448 634Q400
630 343 615T229 571T125 499T50 395T22 252Q22 170 57 111T155 19T298 -13Q369 -13 422 14T504 87T533 195Q533 253 503 299T421 373T300 400Q261 400 226 386T158 348T97 297Z" />
<glyph unicode="7" horiz-adv-x="496" d="M274 -73L476 504L440 566H10L27 442H305L122 -32L274 -73Z" />
<glyph unicode="8" horiz-adv-x="544" d="M273 643Q207 643 156 620T76 556T47 462Q47 425 68 393T120 341Q95 328 73 305T36 252T22 191Q22 131 52 85T139 13T273 -13Q351 -13 406 13T491 86T521 191Q521 223 508 252T472 304T424 340Q446 353 462 372T488 414T498
462Q498 515 469 555T389 619T273 643ZM271 515Q305 515 324 497T344 458Q344 441 336 426T312 401T273 387Q237 392 218 411T200 457Q200 471 208 484T233 506T271 515ZM273 286Q319 278 344 251T369 194Q369 171 355 153T318 125T272 114Q247 114 225 124T189
153T175 194Q175 223 199 250T273 286Z" />
<glyph unicode="9" horiz-adv-x="556" d="M459 269L434 367Q411 340 385 320T329 288T269 276Q242 276 221 288T187 320T175 366Q175 391 186 410T218 440T262 451Q296 451 322 435T362 386T376 305Q376 252 358 216T309 154T240 113T163 88T89 70L107 -68Q155
-64 213 -49T327 -5T430 67T505 172T533 314Q533 396 498 455T401 547T257 579Q187 579 134 553T52 479T22 371Q22 312 52 266T135 193T255 166Q296 166 331 180T397 217T459 269Z" />
<glyph unicode=":" horiz-adv-x="225" d="M114 310Q148 310 171 333T195 392Q195 427 171 451T114 475Q78 475 54 451T30 392Q30 357 54 334T114 310ZM114 0Q148 0 171 23T195 82Q195 117 171 141T114 165Q78 165 54 141T30 82Q30 47 54 24T114 0Z" />
<glyph unicode=";" horiz-adv-x="228" d="M116 310Q150 310 174 333T198 392Q198 427 174 451T116 475Q81 475 57 451T33 392Q33 357 57 334T116 310ZM113 165Q90 165 71 153T42 121T31 82Q31 65 38 49T56 22T80 7Q74 -16 57 -33T20 -65L53 -136Q94 -116 126 -83T178
-11T197 66Q197 110 173 137T113 165Z" />
<glyph unicode="&lt;" horiz-adv-x="365" d="M345 142L194 249L345 355L317 488L30 284V214L317 8L345 142Z" />
<glyph unicode="=" horiz-adv-x="530" d="M490 417H30L41 302H500L490 417ZM490 207H30L41 92H500L490 207Z" />
<glyph unicode="&gt;" horiz-adv-x="365" d="M335 283L48 488L20 354L171 247L20 141L48 8L335 213V283Z" />
<glyph unicode="?" horiz-adv-x="451" d="M202 701Q153 701 106 689T10 647L30 514Q85 548 128 560T199 572Q228 572 247 557T267 516Q267 482 223 448T110 393L118 231L236 192L250 318Q306 342 343 373T401 440T421 515Q421 572 395 613T320 678T202 701ZM168
165Q133 165 109 141T85 82Q85 47 109 24T168 0Q203 0 227 23T251 82Q251 117 227 141T168 165Z" />
<glyph unicode="@" horiz-adv-x="789" d="M573 386L535 439H450Q408 439 367 427T291 389T236 323T215 226Q215 152 259 106T398 59Q420 59 441 64T479 80Q494 68 513 62T554 56Q595 56 632 72T700 120T748 200T766 308Q766 372 741 428T670 527T562 593T427 617Q332
617 257 586T130 501T50 378T22 231Q22 152 52 90T134 -16T251 -81T386 -104Q436 -104 489 -97T601 -59L562 41Q538 31 507 24T446 15T396 12Q333 12 280 37T194 110T160 228Q160 289 181 338T239 423T325 477T429 496Q496 496 542 470T613 400T638 303Q638 264
625 236T594 192T564 177Q558 177 554 182T550 197L573 386ZM395 179Q377 179 366 187T351 207T346 230Q346 260 357 282T390 317T439 331H442L428 220Q426 214 426 205T426 189Q421 184 412 182T395 179Z" />
<glyph unicode="A" horiz-adv-x="685" d="M420 271H264L340 482L420 271ZM270 680L10 0H166L219 147H466L521 -10L675 8L416 680H270Z" />
<glyph unicode="B" horiz-adv-x="637" d="M350 0Q405 0 453 12T537 48T594 110T615 201Q615 257 588 298T517 365Q542 387 563 417T585 487Q585 557 552 599T461 660T333 680H82V0H350ZM320 554Q352 554 374 547T409 524T422 481Q422 458 407 443T365 420T307
413H239V554H320ZM351 288Q398 288 425 266T453 203Q453 178 440 161T403 134T347 125H239V288H351Z" />
<glyph unicode="C" horiz-adv-x="580" d="M561 643Q534 660 500 671T432 687T371 693Q296 693 234 667T127 594T57 481T32 337Q32 262 54 198T120 87T227 13T371 -13Q402 -13 437 -8T507 8T568 33L509 150Q480 135 445 126T370 116Q332 116 300 132T245 178T208
248T194 338Q194 408 218 458T283 536T370 564Q397 564 417 561T459 552T514 535L561 643Z" />
<glyph unicode="D" horiz-adv-x="716" d="M364 0Q462 1 533 42T644 161T683 344Q683 441 648 516T542 636T366 680H82V0H364ZM364 553Q417 553 451 527T503 454T521 344Q521 268 500 220T442 150T356 127H238V553H364Z" />
<glyph unicode="E" horiz-adv-x="590" d="M570 0L550 122H238V281H473L454 404H238V557H530L511 680H82V0H570Z" />
<glyph unicode="F" horiz-adv-x="534" d="M449 394H238V557H514L496 679H82V0H238V272H467L449 394Z" />
<glyph unicode="G" horiz-adv-x="648" d="M336 265H466V124Q448 121 428 119T384 116Q334 116 291 140T221 215T194 338Q194 395 211 437T257 508T322 550T396 564Q423 564 445 561T492 552T550 535L598 643Q570 660 533 671T458 687T394 693Q318 693 253 668T137
596T60 484T32 337Q32 233 74 154T196 31T383 -13Q421 -13 462 -7T542 10T606 36V382H349L336 265Z" />
<glyph unicode="H" horiz-adv-x="730" d="M647 0V680H491V400H238V686L82 680V0H238V277H491V0H647Z" />
<glyph unicode="I" horiz-adv-x="321" d="M238 0V680H82V0H238Z" />
<glyph unicode="J" horiz-adv-x="320" d="M91 112Q91 90 86 74T64 44T10 16L73 -104Q139 -82 177 -59T231 -4T248 76V680H91V112Z" />
<glyph unicode="K" horiz-adv-x="695" d="M488 0L299 268L239 209V0H82V680H239V420L523 695L642 607L409 377L685 0H488Z" />
<glyph unicode="L" horiz-adv-x="561" d="M533 122H238V680H82V0H551L533 122Z" />
<glyph unicode="M" horiz-adv-x="785" d="M436 209L546 360V0H702V680H602L403 394L186 680H82V0H238V371L374 201L436 209Z" />
<glyph unicode="N" horiz-adv-x="759" d="M238 0V405L277 351L526 0H676V680H520L521 269L474 335L232 680H82V0H238Z" />
<glyph unicode="O" horiz-adv-x="750" d="M375 -14Q268 -14 191 33T73 160T32 337Q32 442 76 522T197 648T375 695Q484 695 560 648T677 522T718 344Q718 239 675 159T554 33T375 -14ZM374 117Q425 117 466 142T531 217T556 344Q556 408 535 457T473 534T376 563Q328
563 286 535T219 457T194 338Q194 274 215 224T277 146T374 117Z" />
<glyph unicode="P" horiz-adv-x="630" d="M238 0V217H324Q378 217 429 231T520 273T583 345T607 448Q607 528 570 579T470 655T332 680H82V0H238ZM327 554Q364 554 390 542T430 506T444 444Q443 413 429 390T389 354T330 342H238V554H327Z" />
<glyph unicode="Q" horiz-adv-x="750" d="M455 294L351 209L606 -44L701 38L455 294ZM375 695Q274 694 197 649T76 523T32 337Q32 240 73 160T191 33T375 -14Q477 -13 554 32T674 158T718 344Q718 442 678 521T561 648T375 695ZM194 338Q194 407 219 457T286 535T376
563Q433 563 473 535T534 457T556 344Q556 268 532 218T466 142T374 117Q318 117 278 145T216 224T194 338Z" />
<glyph unicode="R" horiz-adv-x="672" d="M327 554Q365 554 390 544T430 512T444 456Q444 425 429 404T389 372T330 361H238V554H327ZM82 680V0H238V236H299Q314 236 329 236T360 236L486 0H662L504 280Q549 306 578 351T607 459Q607 536 570 584T470 656T332 680H82Z" />
<glyph unicode="S" horiz-adv-x="537" d="M40 43Q58 32 84 22T140 4T199 -8T252 -13Q335 -13 393 12T483 81T515 181Q515 224 497 256T448 316T382 365T309 408Q280 427 253 441T210 470T194 505Q194 532 217 547T278 563Q304 563 326 559T372 547T423 527L472
641Q433 664 380 679T276 694Q201 694 146 670T62 603T32 506Q32 465 50 432T99 371T166 322T236 278Q264 261 291 246T335 215T353 183Q353 165 342 151T307 128T248 120Q222 120 191 127T132 144T85 165L40 43Z" />
<glyph unicode="T" horiz-adv-x="605" d="M576 680H10V557H214V0H370V557H595L576 680Z" />
<glyph unicode="U" horiz-adv-x="730" d="M229 680H72L73 254Q73 173 109 113T212 20T365 -13Q454 -12 519 20T621 113T658 254V680H501V263Q501 215 484 183T436 134T365 117Q326 117 295 133T247 181T229 263V680Z" />
<glyph unicode="V" horiz-adv-x="685" d="M165 690L10 672L269 0H416L675 680H520L345 199L165 690Z" />
<glyph unicode="W" horiz-adv-x="963" d="M953 680L754 0H607L482 461L361 0H214L10 672L165 690L290 198L405 680H561L683 198L797 680H953Z" />
<glyph unicode="X" horiz-adv-x="677" d="M185 0L338 221L475 0H660L434 342L666 680H485L344 464L181 702L26 652L247 341L10 0H185Z" />
<glyph unicode="Y" horiz-adv-x="632" d="M386 0L385 263L622 680H459L306 416L162 694L10 651L229 266V0H386Z" />
<glyph unicode="Z" horiz-adv-x="581" d="M550 122H188L564 564L547 680H41L58 557H379L12 115L30 0H566L550 122Z" />
<glyph unicode="[" horiz-adv-x="421" d="M100 -87H411L393 35H256V573H393L411 696H100V-87Z" />
<glyph unicode="\" horiz-adv-x="481" d="M471 0L172 710L10 708L308 -2L471 0Z" />
<glyph unicode="]" horiz-adv-x="421" d="M321 696H10L27 573H164V35H28L10 -87H321V696Z" />
<glyph unicode="^" horiz-adv-x="465" d="M234 256L301 142H455L289 407H177L10 142H166L234 256Z" />
<glyph unicode="_" horiz-adv-x="449" d="M409 122H30L41 0H419L409 122Z" />
<glyph unicode="`" horiz-adv-x="236" d="M115 588L226 612L168 770H10L115 588Z" />
<glyph unicode="a" horiz-adv-x="506" d="M169 152Q169 173 184 189T225 205H301V145Q281 127 259 118T216 108Q203 108 193 114T176 130T169 152ZM99 335Q126 348 163 357T230 366Q259 366 277 350T299 302L300 299H224Q141 299 89 264T37 151Q37 78 81 33T215
-12Q249 -12 279 5T334 51L371 0H458V309Q458 366 433 409T361 476T252 500Q222 500 185 494T114 478T57 455L99 335Z" />
<glyph unicode="b" horiz-adv-x="569" d="M142 0L218 87V706L62 695V0H142ZM167 309Q199 340 226 357T283 374Q316 374 338 359T373 315T385 246Q385 207 373 177T339 131T287 114Q257 114 228 128T167 176L123 79Q144 51 172 31T232 0T293 -11Q372 -11 428 19T515
107T546 247Q546 329 515 385T429 471T300 500Q264 500 231 488T171 456T123 410L167 309Z" />
<glyph unicode="c" horiz-adv-x="465" d="M407 148Q375 132 349 125T294 118Q264 118 239 133T199 176T184 242Q184 281 198 309T238 354T294 370Q324 370 349 363T407 341L451 450Q425 470 394 480T333 495T284 500Q206 500 147 469T56 380T22 242Q22 163 55
106T147 19T284 -11Q305 -11 334 -8T394 7T451 38L407 148Z" />
<glyph unicode="d" horiz-adv-x="577" d="M358 104L435 0H515V706L358 695V104ZM402 179Q370 148 343 131T286 114Q254 114 231 130T196 174T184 242Q184 282 196 311T230 357T282 374Q312 374 341 360T402 313L446 410Q425 438 397 458T337 489T275 500Q198 500
142 470T54 382T22 242Q22 160 53 104T140 18T269 -11Q305 -11 338 1T398 33T446 78L402 179Z" />
<glyph unicode="e" horiz-adv-x="524" d="M502 200V247Q502 316 478 373T403 465T275 500Q201 500 144 469T55 380T22 242Q22 163 56 106T155 19T308 -12Q349 -12 385 -5T450 16T500 44L456 153Q429 138 396 127T319 115Q279 115 253 125T212 155T191 200H502ZM189
289Q192 315 203 333T232 361T271 371Q295 371 312 360T339 331T353 289H189Z" />
<glyph unicode="f" horiz-adv-x="413" d="M11 353H88V0H245V353H387L358 474H245V496Q245 530 260 551T306 572Q319 572 335 568T368 556L413 666Q402 676 382 684T340 697T297 703Q238 703 191 681T116 618T88 515V474H11V353Z" />
<glyph unicode="g" horiz-adv-x="573" d="M515 484H435L358 380V-18Q358 -57 327 -80T244 -104Q211 -104 174 -96T90 -64L42 -174Q64 -188 93 -199T153 -217T211 -227T253 -230Q332 -230 391 -205T482 -132T515 -20V484ZM402 179Q370 148 343 131T286 114Q254
114 231 130T196 174T184 242Q184 282 196 311T230 357T282 374Q312 374 341 360T402 313L446 410Q425 438 397 458T337 489T275 500Q198 500 142 470T54 382T22 242Q22 160 53 104T140 18T269 -11Q305 -11 338 1T398 33T446 78L402 179Z" />
<glyph unicode="h" horiz-adv-x="598" d="M218 331Q235 340 254 350T294 366T332 373Q364 373 378 353T393 297V0H550V308Q550 363 534 406T480 475T379 501Q346 501 312 492T246 468T186 434L218 331ZM218 0V706L62 695V0H218Z" />
<glyph unicode="i" horiz-adv-x="261" d="M209 0V485H52V0H209ZM130 552Q166 552 191 577T217 638Q217 674 191 699T130 725Q95 725 70 700T44 638Q44 603 69 578T130 552Z" />
<glyph unicode="j" horiz-adv-x="282" d="M146 552Q125 552 105 564T73 595T60 638Q60 674 85 699T146 725Q182 725 208 700T234 638Q234 603 209 578T146 552ZM225 485V-4Q225 -54 211 -88T159 -147T54 -194L-8 -79Q28 -66 44 -52T64 -18T68 25V485H225Z" />
<glyph unicode="k" horiz-adv-x="543" d="M218 0V157L261 192L369 0H543L372 282L504 390L413 499L218 328V706L62 695V0H218Z" />
<glyph unicode="l" horiz-adv-x="281" d="M218 0V706L62 695V0H218Z" />
<glyph unicode="m" horiz-adv-x="888" d="M209 0V331Q225 340 243 350T280 366T315 373Q337 373 348 364T364 337T368 297V0H525V318Q525 373 510 414T459 478T362 501Q332 501 299 492T235 468T176 434L149 485H52V0H209ZM524 331Q540 340 558 350T596 366T630
373Q652 373 663 364T679 337T684 297V0H840V318Q840 373 825 414T773 478T676 501Q647 501 615 492T551 468T491 434L524 331Z" />
<glyph unicode="n" horiz-adv-x="589" d="M209 0V331Q225 340 244 350T284 366T323 373Q354 373 369 353T384 297V0H540V308Q540 363 524 406T470 475T369 501Q336 501 303 492T237 468T176 434L149 485H52V0H209Z" />
<glyph unicode="o" horiz-adv-x="579" d="M288 -11Q209 -11 149 18T56 104T22 243Q23 324 57 381T152 469T290 500Q369 500 429 470T523 383T557 242Q557 163 522 106T427 19T288 -11ZM289 118Q322 118 345 133T382 177T395 242Q395 279 383 308T347 353T291 370Q259
370 235 354T197 310T184 243Q184 207 197 179T233 134T289 118Z" />
<glyph unicode="p" horiz-adv-x="565" d="M214 -209V399L137 484H58V-219L214 -209ZM163 309Q195 340 222 357T279 374Q312 374 334 359T369 315T381 246Q381 207 369 177T335 131T283 114Q253 114 224 128T163 176L119 79Q140 51 168 31T228 0T289 -11Q368 -11
424 19T511 107T542 247Q542 329 511 385T425 471T296 500Q260 500 227 488T167 456T119 410L163 309Z" />
<glyph unicode="q" horiz-adv-x="573" d="M435 484L358 389V-219L515 -208V484H435ZM402 179Q370 148 343 131T286 114Q254 114 231 130T196 174T184 242Q184 282 196 311T230 357T282 374Q312 374 341 360T402 313L446 410Q425 438 397 458T337 489T275 500Q198
500 142 470T54 382T22 242Q22 160 53 104T140 18T269 -11Q305 -11 338 1T398 33T446 78L402 179Z" />
<glyph unicode="r" horiz-adv-x="381" d="M209 0V290Q233 311 262 326T319 351T371 360L339 485Q313 485 283 474T224 447T176 415L132 484H52V0H209Z" />
<glyph unicode="s" horiz-adv-x="437" d="M25 42Q50 23 86 11T157 -6T212 -11Q312 -11 363 30T414 145Q414 189 389 220T326 272T247 308Q223 316 204 326T184 347Q184 360 199 369T238 378Q267 378 298 370T361 347L407 449Q380 468 348 479T284 495T232 500Q137
500 83 459T29 345Q29 303 54 273T119 223T197 189Q217 184 232 176T255 160T263 142Q263 132 254 125T231 114T202 110Q185 110 162 115T116 127T70 144L25 42Z" />
<glyph unicode="t" horiz-adv-x="419" d="M344 474H236V622L80 598V474H10V353H80V169Q80 109 108 68T184 5T291 -16Q310 -16 333 -11T376 3T407 21L362 130Q346 122 330 119T300 115Q270 115 253 135T236 190V353H372L344 474Z" />
<glyph unicode="u" horiz-adv-x="589" d="M380 484V154Q364 145 345 135T305 119T266 112Q235 112 220 133T205 188V484H48V176Q48 121 64 78T118 9T220 -17Q252 -17 286 -8T352 17T412 50L449 -1H536V484H380Z" />
<glyph unicode="v" horiz-adv-x="536" d="M335 0L526 485H367L268 201L163 503L15 460L193 0H335Z" />
<glyph unicode="w" horiz-adv-x="765" d="M597 0L755 485H596L530 206L457 485H300L231 206L159 503L10 460L157 0H295L376 273L460 0H597Z" />
<glyph unicode="x" horiz-adv-x="534" d="M185 0L265 125L342 0H516L359 229L524 485H352L265 349L168 500L19 461L172 244L10 0H185Z" />
<glyph unicode="y" horiz-adv-x="533" d="M167 -12Q161 -30 140 -45T92 -73T42 -96L96 -221Q141 -210 183 -188T259 -132T308 -61L523 485H363L264 201L158 503L10 460L181 21L167 -12Z" />
<glyph unicode="z" horiz-adv-x="448" d="M415 485H28L49 360H230L10 82L30 0H437L423 124H204L423 397L415 485Z" />
<glyph unicode="{" horiz-adv-x="322" d="M222 309Q237 322 247 340T257 390Q257 413 251 427T238 453Q232 464 227 476T221 507Q221 518 230 528T259 538H299L312 659H226Q152 659 118 625T84 533Q84 519 88 504T97 474Q103 453 110 435T117 403Q117 385 104
374T75 362H30V256H75Q91 256 104 245T117 215Q117 201 111 185T99 149Q94 134 89 118T84 86Q84 29 118 -6T226 -41H312L299 81H259Q239 81 230 91T221 112Q221 132 226 145T240 171Q246 183 251 196T257 229Q257 258 247 277T222 309Z" />
<glyph unicode="|" horiz-adv-x="321" d="M82 713V0L238 -13V700L82 713Z" />
<glyph unicode="}" horiz-adv-x="321" d="M99 309Q85 297 75 279T65 229Q65 208 70 194T82 168Q89 157 94 144T100 112Q100 101 91 91T62 81H22L9 -40H95Q169 -40 203 -6T237 85Q237 100 233 117T223 149Q217 169 211 186T204 215Q204 234 217 245T246 257H291V363H246Q230
363 217 374T204 404Q204 417 210 434T223 472Q228 487 232 502T237 532Q237 589 203 624T95 659H9L22 538H62Q82 538 91 528T100 507Q100 487 95 474T82 449Q76 437 71 424T65 390Q65 360 75 341T99 309Z" />
<glyph unicode="~" horiz-adv-x="523" d="M30 174H160Q160 192 171 204T196 217Q219 217 237 213T272 201Q292 195 312 190T362 184Q404 184 433 206T477 271T493 373H372Q371 356 361 343T337 330Q315 330 296 335T258 346Q239 352 219 357T173 362Q131 362 99
341T48 277T30 174Z" />
<glyph unicode="&#xa0;" horiz-adv-x="222" />
<glyph unicode="&#xa1;" horiz-adv-x="226" d="M112 543Q147 543 171 567T196 626Q196 661 172 684T112 708Q79 708 55 685T30 626Q30 591 54 567T112 543ZM175 462L50 505L32 0H192L175 462Z" />
<glyph unicode="&#xa2;" horiz-adv-x="465" d="M360 455V621L220 608V456L360 455ZM361 44H220V-120H361V44ZM407 148Q375 132 349 125T294 118Q264 118 239 133T199 176T184 242Q184 281 198 309T238 354T294 370Q324 370 349 363T407 341L451 450Q425 470 394
480T333 495T284 500Q206 500 147 469T56 380T22 242Q22 163 55 106T147 19T284 -11Q305 -11 334 -8T394 7T451 38L407 148Z" />
<glyph unicode="&#xa3;" horiz-adv-x="514" d="M53 0H504L485 122H265Q271 137 274 155T278 194V279H433L403 401H278V478Q278 512 294 533T344 554Q356 554 373 550T406 538L450 646Q440 657 420 665T378 678T334 684Q273 684 225 663T149 599T121 497V401H42L43
279H121V198Q121 164 105 144T43 122L53 0Z" />
<glyph unicode="&#xa4;" horiz-adv-x="758" d="M139 -94L248 19Q276 5 310 -3T381 -12Q415 -11 448 -4T510 18L616 -92L728 16L615 122Q630 149 638 181T647 248Q646 281 638 312T615 371L722 477L619 587L510 475Q482 489 449 497T380 505Q345 505 311 497T248
473L142 584L30 477L144 368Q130 343 122 311T114 245Q114 211 122 180T143 123L36 16L139 -94ZM490 246Q490 216 475 191T435 151T379 135Q351 136 326 150T287 190T271 246Q272 277 286 302T324 342T379 357Q409 357 434 342T474 303T490 246Z" />
<glyph unicode="&#xa5;" horiz-adv-x="632" d="M87 315L97 209H544L534 315H87ZM87 162L97 56H544L534 162H87ZM386 0L385 263L622 680H459L306 416L162 694L10 651L229 266V0H386Z" />
<glyph unicode="&#xa6;" horiz-adv-x="321" d="M82 713V413L238 400V700L82 713ZM82 300V0L238 -13V287L82 300Z" />
<glyph unicode="&#xa7;" horiz-adv-x="657" d="M416 77Q485 83 533 109T608 175T634 266Q634 309 616 342T567 401T501 450T429 494Q398 512 372 526T330 555T314 590Q314 617 337 633T397 649Q424 649 446 645T491 632T543 613L592 727Q552 749 500 764T395 780Q320
780 265 756T181 688T152 591Q152 550 170 517T219 456T284 407T355 363Q384 347 411 332T455 301T473 268Q473 241 447 223T368 205L416 77ZM40 -63Q58 -74 84 -84T140 -102T199 -114T252 -119Q335 -119 393 -94T483 -25T515 75Q515 118 497 150T448 210T382 259T309
303Q280 321 253 335T210 364T194 399Q194 426 217 441T278 457L236 584Q173 578 127 553T57 488T32 400Q32 359 50 326T99 265T166 216T236 171Q264 155 291 140T335 109T353 77Q353 59 342 45T307 22T248 14Q222 14 191 21T132 38T85 59L40 -63Z" />
<glyph unicode="&#xa8;" horiz-adv-x="370" d="M85 603Q116 603 137 624T158 677Q158 707 137 729T85 751Q54 751 32 729T10 677Q10 646 32 625T85 603ZM285 603Q317 603 338 624T360 677Q360 707 339 729T285 751Q256 751 234 729T211 677Q211 646 233 625T285 603Z" />
<glyph unicode="&#xa9;" horiz-adv-x="824" d="M802 336Q802 416 775 485T696 607T572 688T412 718Q324 718 252 689T129 607T50 486T22 336Q22 258 50 189T129 67T252 -14T412 -44Q500 -44 572 -15T695 67T774 188T802 336ZM132 337Q132 417 166 480T264 581T412
619Q502 619 563 582T658 481T691 337Q691 258 657 195T560 94T411 56Q327 56 264 93T167 194T132 337ZM427 109Q445 109 471 112T524 125T574 153L534 256Q506 242 484 236T436 229Q397 229 372 257T346 337Q346 371 357 395T390 433T436 446Q454 446 469 444T500
435T534 419L574 523Q551 540 524 550T471 563T427 567Q360 567 308 539T226 460T196 336Q196 266 224 215T305 137T427 109Z" />
<glyph unicode="&#xaa;" horiz-adv-x="337" d="M130 468Q130 476 137 481T157 486H202V470Q191 461 178 457T152 452Q141 452 136 457T130 468ZM65 574Q84 582 110 589T156 596Q170 596 180 591T195 573L196 570H152Q95 570 59 543T22 462Q22 412 52 381T146 350Q172
350 196 359T238 384L261 357H315V570Q315 610 299 639T250 685T172 702Q146 702 121 698T74 686T36 671L65 574Z" />
<glyph unicode="&#xab;" horiz-adv-x="411" d="M205 222L364 78L391 174L317 246L391 318L364 414L205 269V222ZM30 222L189 78L216 174L141 246L216 318L189 414L30 269V222Z" />
<glyph unicode="&#xac;" horiz-adv-x="534" d="M491 415H10L20 292H365V117L504 111V357L491 415Z" />
<glyph unicode="&#xad;" horiz-adv-x="120" />
<glyph unicode="&#xae;" horiz-adv-x="728" d="M705 481Q705 577 664 654T547 776T364 821Q260 821 183 776T64 654T22 481Q22 387 63 311T182 189T364 144Q470 144 546 189T664 310T705 481ZM117 482Q117 555 146 611T231 699T364 732Q440 732 495 700T581 611T611
482Q611 411 581 355T496 266T364 232Q287 233 232 265T147 354T117 482ZM352 589Q372 589 386 586T407 574T415 548Q415 532 407 523T385 510T352 506H319V589H352ZM528 302L459 450Q486 465 503 489T521 550Q521 591 500 617T445 655T371 668H221V302H319V429H342Q348
429 353 429T364 429L417 302H528Z" />
<glyph unicode="&#xaf;" horiz-adv-x="296" d="M10 613H286L276 736H10V613Z" />
<glyph unicode="&#xb0;" horiz-adv-x="277" d="M139 722Q104 722 75 705T28 661T10 599Q10 564 27 536T74 493T139 477Q173 477 202 492T249 536T267 599Q267 633 250 660T203 705T139 722ZM172 596Q172 584 163 574T140 564Q127 564 117 575T107 599Q107 611
117 621T140 631Q153 631 162 621T172 596Z" />
<glyph unicode="&#xb1;" horiz-adv-x="508" d="M468 401H321V551L191 552V401H31L41 295H191V151L321 145V295H478L468 401ZM470 107H31L40 0H477L470 107Z" />
<glyph unicode="&#xb2;" horiz-adv-x="378" d="M177 771Q143 771 113 764T59 746T14 722L65 635Q83 644 100 651T136 663T171 667Q188 667 199 663T217 650T223 633Q222 608 208 585T162 536L30 423V337H358L345 436H207L244 467Q297 513 320 552T344 639Q344
671 327 701T273 751T177 771Z" />
<glyph unicode="&#xb3;" horiz-adv-x="390" d="M182 771Q137 771 96 758T15 716L72 630Q94 646 117 656T167 667Q194 667 208 658T223 632Q223 620 217 609T195 591T153 584H98L110 485H165Q195 485 213 471T231 429Q231 416 223 405T200 388T167 382Q140 382
117 390T62 418L0 331Q39 305 85 292T173 279Q230 279 273 298T339 351T362 428Q362 454 352 477T327 517T295 540Q309 547 322 562T345 598T354 639Q354 695 309 733T182 771Z" />
<glyph unicode="&#xb4;" horiz-adv-x="236" d="M121 588L226 770H68L10 612L121 588Z" />
<glyph unicode="&#xb5;" horiz-adv-x="599" d="M215 -209V372L58 353V-219L215 -209ZM390 484V154Q374 145 355 135T315 119T276 112Q245 112 230 133T215 188V484H58V176Q58 121 74 78T128 9T230 -17Q262 -17 296 -8T362 17T422 50L449 -1H546V484H390Z" />
<glyph unicode="&#xb6;" horiz-adv-x="983" d="M497 0V557H687V0H844V557H960V680H304Q227 680 163 657T61 584T22 451Q22 389 46 345T111 271T205 228T316 214H341V0H497Z" />
<glyph unicode="&#xb7;" horiz-adv-x="225" d="M114 180Q148 180 171 204T195 262Q195 297 172 321T114 345Q78 345 54 321T30 262Q30 228 54 204T114 180Z" />
<glyph unicode="&#xb8;" horiz-adv-x="260" d="M50 -84Q72 -87 92 -92T124 -105T137 -126Q137 -136 127 -140T105 -144Q91 -144 73 -138T44 -126L10 -207Q31 -223 61 -232T116 -242Q150 -242 180 -230T230 -192T250 -130Q250 -113 242 -94T219 -59T180 -34L199
13H89L50 -84Z" />
<glyph unicode="&#xb9;" horiz-adv-x="323" d="M260 337V764H176L10 688L50 588L133 625V337H260Z" />
<glyph unicode="&#xba;" horiz-adv-x="394" d="M196 702Q143 702 104 681T44 620T22 526Q22 472 42 433T100 372T191 350Q246 350 286 371T349 432T372 524Q372 578 351 617T291 679T196 702ZM198 595Q226 595 236 576T247 524Q247 500 242 485T224 463T194 455Q168
455 157 473T146 526Q146 550 153 565T171 588T198 595Z" />
<glyph unicode="&#xbb;" horiz-adv-x="412" d="M206 270L48 414L20 318L95 246L20 175L48 78L206 223V270ZM382 270L223 414L195 318L271 246L195 175L223 78L382 223V270Z" />
<glyph unicode="&#xbc;" horiz-adv-x="953" d="M260 337V764H176L10 688L50 588L133 625V337H260ZM933 25H849V324H755L497 21L511 -79H718V-166H849V-79H924L933 25ZM718 117V25H641L718 117ZM644 700L53 -134H206L798 700H644Z" />
<glyph unicode="&#xbd;" horiz-adv-x="954" d="M260 337V764H176L10 688L50 588L133 625V337H260ZM753 325Q719 325 689 318T635 300T590 276L641 189Q659 198 676 205T712 217T747 221Q764 221 775 217T793 204T799 187Q798 162 784 139T738 90L606 -23V-109H934L921
-10H783L820 21Q873 67 896 106T920 193Q920 225 903 255T849 305T753 325ZM644 700L53 -134H206L798 700H644Z" />
<glyph unicode="&#xbe;" horiz-adv-x="948" d="M182 771Q137 771 96 758T15 716L72 630Q94 646 117 656T167 667Q194 667 208 658T223 632Q223 620 217 609T195 591T153 584H98L110 485H165Q195 485 213 471T231 429Q231 416 223 405T200 388T167 382Q140 382
117 390T62 418L0 331Q39 305 85 292T173 279Q230 279 273 298T339 351T362 428Q362 454 352 477T327 517T295 540Q309 547 322 562T345 598T354 639Q354 695 309 733T182 771ZM669 700L78 -134H231L823 700H669ZM929 26H845V325H751L493 22L507 -78H714V-165H845V-78H920L929
26ZM714 118V26H637L714 118Z" />
<glyph unicode="&#xbf;" horiz-adv-x="451" d="M282 498Q317 498 341 522T365 582Q365 617 341 640T282 664Q248 664 224 641T200 582Q200 547 224 523T282 498ZM248 -37Q297 -37 344 -25T441 17L421 150Q366 115 323 103T251 91Q222 91 203 106T184 148Q184 182
228 216T341 272L333 434L215 472L201 347Q146 323 108 292T50 224T30 149Q30 94 56 52T131 -13T248 -37Z" />
<glyph unicode="&#xc0;" horiz-adv-x="685" d="M420 271H264L340 482L420 271ZM270 680L10 0H166L219 147H466L521 -10L675 8L416 680H270ZM304 736L415 759L357 918H199L304 736Z" />
<glyph unicode="&#xc1;" horiz-adv-x="685" d="M420 271H264L340 482L420 271ZM270 680L10 0H166L219 147H466L521 -10L675 8L416 680H270ZM391 736L496 918H338L280 759L391 736Z" />
<glyph unicode="&#xc2;" horiz-adv-x="685" d="M420 271H264L340 482L420 271ZM270 680L10 0H166L219 147H466L521 -10L675 8L416 680H270ZM343 803L402 739L549 757L385 921H296L133 757L284 739L343 803Z" />
<glyph unicode="&#xc3;" horiz-adv-x="685" d="M420 271H264L340 482L420 271ZM270 680L10 0H166L219 147H466L521 -10L675 8L416 680H270ZM410 886Q410 873 403 865T385 856Q368 856 357 861T334 872Q324 880 310 885T276 890Q248 890 222 877T179 834T162 750H268Q269
759 277 769T296 780Q312 780 323 774T343 762Q354 757 366 751T398 745Q427 745 453 758T495 802T511 886H410Z" />
<glyph unicode="&#xc4;" horiz-adv-x="685" d="M420 271H264L340 482L420 271ZM270 680L10 0H166L219 147H466L521 -10L675 8L416 680H270ZM244 753Q275 753 296 774T317 827Q317 857 296 879T244 901Q213 901 191 879T169 827Q169 796 191 775T244 753ZM444 753Q476
753 497 774T519 827Q519 857 498 879T444 901Q415 901 393 879T370 827Q370 796 392 775T444 753Z" />
<glyph unicode="&#xc5;" horiz-adv-x="685" d="M420 271H264L340 482L420 271ZM270 680L10 0H166L219 147H466L521 -10L675 8L416 680H270ZM342 960Q311 960 285 946T243 907T227 851Q227 804 261 774T342 744Q373 744 399 757T441 795T457 851Q457 882 442 906T400
945T342 960ZM343 816Q329 816 319 826T309 850Q309 865 319 874T343 884Q357 884 367 875T377 851Q377 837 367 827T343 816Z" />
<glyph unicode="&#xc6;" horiz-adv-x="975" d="M467 0H955L936 122H624V281H859L840 404H624V557H915L898 680H461L5 11L155 -12L256 144H467V0ZM467 449V268H342L467 449Z" />
<glyph unicode="&#xc7;" horiz-adv-x="580" d="M561 643Q534 660 500 671T432 687T371 693Q296 693 234 667T127 594T57 481T32 337Q32 262 54 198T120 87T227 13T371 -13Q402 -13 437 -8T507 8T568 33L509 150Q480 135 445 126T370 116Q332 116 300 132T245 178T208
248T194 338Q194 408 218 458T283 536T370 564Q397 564 417 561T459 552T514 535L561 643ZM282 -84Q304 -87 324 -92T356 -105T369 -126Q369 -136 359 -140T337 -144Q323 -144 305 -138T276 -126L242 -207Q263 -223 293 -232T348 -242Q382 -242 412 -230T462 -192T482
-130Q482 -113 474 -94T451 -59T412 -34L431 13H321L282 -84Z" />
<glyph unicode="&#xc8;" horiz-adv-x="590" d="M570 0L550 122H238V281H473L454 404H238V557H530L511 680H82V0H570ZM279 736L390 759L332 918H174L279 736Z" />
<glyph unicode="&#xc9;" horiz-adv-x="590" d="M570 0L550 122H238V281H473L454 404H238V557H530L511 680H82V0H570ZM366 736L471 918H313L255 759L366 736Z" />
<glyph unicode="&#xca;" horiz-adv-x="590" d="M570 0L550 122H238V281H473L454 404H238V557H530L511 680H82V0H570ZM319 803L378 739L525 757L361 921H272L109 757L260 739L319 803Z" />
<glyph unicode="&#xcb;" horiz-adv-x="590" d="M570 0L550 122H238V281H473L454 404H238V557H530L511 680H82V0H570ZM220 753Q251 753 272 774T293 827Q293 857 272 879T220 901Q189 901 167 879T145 827Q145 796 167 775T220 753ZM420 753Q452 753 473 774T495
827Q495 857 474 879T420 901Q391 901 369 879T346 827Q346 796 368 775T420 753Z" />
<glyph unicode="&#xcc;" horiz-adv-x="321" d="M238 0V680H82V0H238ZM123 736L234 759L176 918H18L123 736Z" />
<glyph unicode="&#xcd;" horiz-adv-x="321" d="M238 0V680H82V0H238ZM210 736L315 918H157L99 759L210 736Z" />
<glyph unicode="&#xce;" horiz-adv-x="321" d="M238 0V680H82V0H238ZM419 803L478 739L625 757L461 921H372L209 757L360 739L419 803Z" />
<glyph unicode="&#xcf;" horiz-adv-x="321" d="M238 0V680H82V0H238ZM320 753Q351 753 372 774T393 827Q393 857 372 879T320 901Q289 901 267 879T245 827Q245 796 267 775T320 753ZM520 753Q552 753 573 774T595 827Q595 857 574 879T520 901Q491 901 469 879T446
827Q446 796 468 775T520 753Z" />
<glyph unicode="&#xd0;" horiz-adv-x="716" d="M342 281L328 403H9L23 281H342ZM364 0Q462 0 533 42T644 161T683 344Q683 441 648 516T542 636T366 680H82V0H364ZM364 553Q417 553 451 527T503 454T521 344Q521 268 500 220T442 150T356 127H238V553H364Z" />
<glyph unicode="&#xd1;" horiz-adv-x="759" d="M238 0V405L277 351L526 0H676V680H520L521 269L474 335L232 680H82V0H238ZM447 886Q447 873 440 865T422 856Q405 856 394 861T371 872Q361 880 347 885T313 890Q285 890 259 877T216 834T199 750H305Q306 759 314
769T333 780Q349 780 360 774T380 762Q391 757 403 751T435 745Q464 745 490 758T532 802T548 886H447Z" />
<glyph unicode="&#xd2;" horiz-adv-x="750" d="M375 -14Q268 -14 191 33T73 160T32 337Q32 442 76 522T197 648T375 695Q484 695 560 648T677 522T718 344Q718 239 675 159T554 33T375 -14ZM374 117Q425 117 466 142T531 217T556 344Q556 408 535 457T473 534T376
563Q328 563 286 535T219 457T194 338Q194 274 215 224T277 146T374 117ZM334 736L445 759L387 918H229L334 736Z" />
<glyph unicode="&#xd3;" horiz-adv-x="750" d="M375 -14Q268 -14 191 33T73 160T32 337Q32 442 76 522T197 648T375 695Q484 695 560 648T677 522T718 344Q718 239 675 159T554 33T375 -14ZM374 117Q425 117 466 142T531 217T556 344Q556 408 535 457T473 534T376
563Q328 563 286 535T219 457T194 338Q194 274 215 224T277 146T374 117ZM421 736L526 918H368L310 759L421 736Z" />
<glyph unicode="&#xd4;" horiz-adv-x="750" d="M375 -14Q268 -14 191 33T73 160T32 337Q32 442 76 522T197 648T375 695Q484 695 560 648T677 522T718 344Q718 239 675 159T554 33T375 -14ZM374 117Q425 117 466 142T531 217T556 344Q556 408 535 457T473 534T376
563Q328 563 286 535T219 457T194 338Q194 274 215 224T277 146T374 117ZM374 803L433 739L580 757L416 921H327L164 757L315 739L374 803Z" />
<glyph unicode="&#xd5;" horiz-adv-x="750" d="M375 -14Q268 -14 191 33T73 160T32 337Q32 442 76 522T197 648T375 695Q484 695 560 648T677 522T718 344Q718 239 675 159T554 33T375 -14ZM374 117Q425 117 466 142T531 217T556 344Q556 408 535 457T473 534T376
563Q328 563 286 535T219 457T194 338Q194 274 215 224T277 146T374 117ZM441 886Q441 873 434 865T416 856Q399 856 388 861T365 872Q355 880 341 885T307 890Q279 890 253 877T210 834T193 750H299Q300 759 308 769T327 780Q343 780 354 774T374 762Q385 757
397 751T429 745Q458 745 484 758T526 802T542 886H441Z" />
<glyph unicode="&#xd6;" horiz-adv-x="750" d="M375 -14Q268 -14 191 33T73 160T32 337Q32 442 76 522T197 648T375 695Q484 695 560 648T677 522T718 344Q718 239 675 159T554 33T375 -14ZM374 117Q425 117 466 142T531 217T556 344Q556 408 535 457T473 534T376
563Q328 563 286 535T219 457T194 338Q194 274 215 224T277 146T374 117ZM275 753Q306 753 327 774T348 827Q348 857 327 879T275 901Q244 901 222 879T200 827Q200 796 222 775T275 753ZM475 753Q507 753 528 774T550 827Q550 857 529 879T475 901Q446 901 424
879T401 827Q401 796 423 775T475 753Z" />
<glyph unicode="&#xd7;" horiz-adv-x="588" d="M366 253L542 29H384L293 150L190 29H30L222 260L47 484H204L295 363L398 484H558L366 253Z" />
<glyph unicode="&#xd8;" horiz-adv-x="750" d="M375 -14Q268 -14 191 33T73 160T32 337Q32 442 76 522T197 648T375 695Q484 695 560 648T677 522T718 344Q718 239 675 159T554 33T375 -14ZM374 117Q425 117 466 142T531 217T556 344Q556 408 535 457T473 534T376
563Q328 563 286 535T219 457T194 338Q194 274 215 224T277 146T374 117ZM332 65L224 132L422 609L536 546L332 65Z" />
<glyph unicode="&#xd9;" horiz-adv-x="730" d="M229 680H72L73 254Q73 173 109 113T212 20T365 -13Q454 -12 519 20T621 113T658 254V680H501V263Q501 215 484 183T436 134T365 117Q326 117 295 133T247 181T229 263V680ZM325 736L436 759L378 918H220L325 736Z" />
<glyph unicode="&#xda;" horiz-adv-x="730" d="M229 680H72L73 254Q73 173 109 113T212 20T365 -13Q454 -12 519 20T621 113T658 254V680H501V263Q501 215 484 183T436 134T365 117Q326 117 295 133T247 181T229 263V680ZM412 736L517 918H359L301 759L412 736Z" />
<glyph unicode="&#xdb;" horiz-adv-x="730" d="M229 680H72L73 254Q73 173 109 113T212 20T365 -13Q454 -12 519 20T621 113T658 254V680H501V263Q501 215 484 183T436 134T365 117Q326 117 295 133T247 181T229 263V680ZM364 803L423 739L570 757L406 921H317L154
757L305 739L364 803Z" />
<glyph unicode="&#xdc;" horiz-adv-x="730" d="M229 680H72L73 254Q73 173 109 113T212 20T365 -13Q454 -12 519 20T621 113T658 254V680H501V263Q501 215 484 183T436 134T365 117Q326 117 295 133T247 181T229 263V680ZM265 753Q296 753 317 774T338 827Q338
857 317 879T265 901Q234 901 212 879T190 827Q190 796 212 775T265 753ZM465 753Q497 753 518 774T540 827Q540 857 519 879T465 901Q436 901 414 879T391 827Q391 796 413 775T465 753Z" />
<glyph unicode="&#xdd;" horiz-adv-x="632" d="M386 0L385 263L622 680H459L306 416L162 694L10 651L229 266V0H386ZM353 736L458 918H300L242 759L353 736Z" />
<glyph unicode="&#xde;" horiz-adv-x="637" d="M332 600Q408 600 470 576T569 500T607 368Q607 309 584 265T520 193T429 151T324 137H238V0H82V680H238V600H332ZM330 262Q363 262 388 274T428 309T444 364Q444 401 430 425T390 462T327 474H238V262H330Z" />
<glyph unicode="&#xdf;" horiz-adv-x="643" d="M62 0H219V464Q219 498 232 521T269 556T318 569Q359 569 385 548T412 492Q412 461 384 436T311 410H280V292H367Q401 292 426 269T452 206Q452 184 439 166T405 138T358 128H275V0H371Q444 0 498 24T582 92T613
197Q613 237 597 272T554 333T498 368Q522 382 538 405T563 455T572 506Q572 568 538 611T445 678T312 702Q235 702 179 672T93 587T62 462V0Z" />
<glyph unicode="&#xe0;" horiz-adv-x="506" d="M169 152Q169 173 184 189T225 205H301V145Q281 127 259 118T216 108Q203 108 193 114T176 130T169 152ZM99 335Q126 348 163 357T230 366Q259 366 277 350T299 302L300 299H224Q141 299 89 264T37 151Q37 78 81
33T215 -12Q249 -12 279 5T334 51L371 0H458V309Q458 366 433 409T361 476T252 500Q222 500 185 494T114 478T57 455L99 335ZM227 588L338 612L280 770H122L227 588Z" />
<glyph unicode="&#xe1;" horiz-adv-x="506" d="M169 152Q169 173 184 189T225 205H301V145Q281 127 259 118T216 108Q203 108 193 114T176 130T169 152ZM99 335Q126 348 163 357T230 366Q259 366 277 350T299 302L300 299H224Q141 299 89 264T37 151Q37 78 81
33T215 -12Q249 -12 279 5T334 51L371 0H458V309Q458 366 433 409T361 476T252 500Q222 500 185 494T114 478T57 455L99 335ZM283 588L388 770H230L172 612L283 588Z" />
<glyph unicode="&#xe2;" horiz-adv-x="506" d="M169 152Q169 173 184 189T225 205H301V145Q281 127 259 118T216 108Q203 108 193 114T176 130T169 152ZM99 335Q126 348 163 357T230 366Q259 366 277 350T299 302L300 299H224Q141 299 89 264T37 151Q37 78 81
33T215 -12Q249 -12 279 5T334 51L371 0H458V309Q458 366 433 409T361 476T252 500Q222 500 185 494T114 478T57 455L99 335ZM255 652L314 588L461 606L297 770H208L45 607L196 588L255 652Z" />
<glyph unicode="&#xe3;" horiz-adv-x="506" d="M169 152Q169 173 184 189T225 205H301V145Q281 127 259 118T216 108Q203 108 193 114T176 130T169 152ZM99 335Q126 348 163 357T230 366Q259 366 277 350T299 302L300 299H224Q141 299 89 264T37 151Q37 78 81
33T215 -12Q249 -12 279 5T334 51L371 0H458V309Q458 366 433 409T361 476T252 500Q222 500 185 494T114 478T57 455L99 335ZM323 736Q323 723 316 715T298 706Q282 706 270 711T248 722Q237 729 224 734T191 740Q163 740 136 727T92 684T75 600H181Q182 609 190
619T209 630Q225 630 235 625T256 613Q266 607 278 601T311 595Q340 595 365 608T407 652T424 736H323Z" />
<glyph unicode="&#xe4;" horiz-adv-x="506" d="M169 152Q169 173 184 189T225 205H301V145Q281 127 259 118T216 108Q203 108 193 114T176 130T169 152ZM99 335Q126 348 163 357T230 366Q259 366 277 350T299 302L300 299H224Q141 299 89 264T37 151Q37 78 81
33T215 -12Q249 -12 279 5T334 51L371 0H458V309Q458 366 433 409T361 476T252 500Q222 500 185 494T114 478T57 455L99 335ZM150 603Q181 603 202 624T223 677Q223 707 202 729T150 751Q119 751 97 729T75 677Q75 646 97 625T150 603ZM350 603Q382 603 403 624T425
677Q425 707 404 729T350 751Q321 751 299 729T276 677Q276 646 298 625T350 603Z" />
<glyph unicode="&#xe5;" horiz-adv-x="506" d="M169 152Q169 173 184 189T225 205H301V145Q281 127 259 118T216 108Q203 108 193 114T176 130T169 152ZM99 335Q126 348 163 357T230 366Q259 366 277 350T299 302L300 299H224Q141 299 89 264T37 151Q37 78 81
33T215 -12Q249 -12 279 5T334 51L371 0H458V309Q458 366 433 409T361 476T252 500Q222 500 185 494T114 478T57 455L99 335ZM253 810Q222 810 196 796T154 757T138 701Q138 654 172 624T253 594Q284 594 310 607T352 645T368 701Q368 732 353 756T311 795T253
810ZM254 666Q240 666 230 676T220 700Q220 715 230 724T254 734Q268 734 278 725T288 701Q288 687 278 677T254 666Z" />
<glyph unicode="&#xe6;" horiz-adv-x="803" d="M780 200H470Q476 174 491 155T532 126T597 115Q641 115 674 126T734 153L779 45Q759 29 729 16T664 -4T587 -12Q521 -12 468 5T378 56Q363 40 341 25T289 -1T215 -12Q125 -12 81 33T37 151Q37 228 89 263T224 299H300L299
303Q297 333 279 349T230 366Q200 366 163 357T99 335L57 455Q80 468 113 478T184 494T252 500Q296 500 333 488T397 451Q428 475 467 487T554 500Q631 500 681 465T755 373T780 247V200ZM468 289H632Q629 312 619 330T591 360T550 371Q529 371 511 361T482 333T468
289ZM303 205H225Q208 205 196 198T176 179T169 152Q169 140 175 130T192 114T216 108Q241 108 258 113T290 128T316 148Q311 162 308 176T303 205Z" />
<glyph unicode="&#xe7;" horiz-adv-x="465" d="M407 148Q375 132 349 125T294 118Q264 118 239 133T199 176T184 242Q184 281 198 309T238 354T294 370Q324 370 349 363T407 341L451 450Q425 470 394 480T333 495T284 500Q206 500 147 469T56 380T22 242Q22 163
55 106T147 19T284 -11Q305 -11 334 -8T394 7T451 38L407 148ZM189 -84Q211 -87 231 -92T263 -105T276 -126Q276 -136 266 -140T244 -144Q230 -144 212 -138T183 -126L149 -207Q170 -223 200 -232T255 -242Q289 -242 319 -230T369 -192T389 -130Q389 -113 381 -94T358
-59T319 -34L338 13H228L189 -84Z" />
<glyph unicode="&#xe8;" horiz-adv-x="524" d="M502 200V247Q502 316 478 373T403 465T275 500Q201 500 144 469T55 380T22 242Q22 163 56 106T155 19T308 -12Q349 -12 385 -5T450 16T500 44L456 153Q429 138 396 127T319 115Q279 115 253 125T212 155T191 200H502ZM189
289Q192 315 203 333T232 361T271 371Q295 371 312 360T339 331T353 289H189ZM243 588L354 612L296 770H138L243 588Z" />
<glyph unicode="&#xe9;" horiz-adv-x="524" d="M502 200V247Q502 316 478 373T403 465T275 500Q201 500 144 469T55 380T22 242Q22 163 56 106T155 19T308 -12Q349 -12 385 -5T450 16T500 44L456 153Q429 138 396 127T319 115Q279 115 253 125T212 155T191 200H502ZM189
289Q192 315 203 333T232 361T271 371Q295 371 312 360T339 331T353 289H189ZM299 588L404 770H246L188 612L299 588Z" />
<glyph unicode="&#xea;" horiz-adv-x="524" d="M502 200V247Q502 316 478 373T403 465T275 500Q201 500 144 469T55 380T22 242Q22 163 56 106T155 19T308 -12Q349 -12 385 -5T450 16T500 44L456 153Q429 138 396 127T319 115Q279 115 253 125T212 155T191 200H502ZM189
289Q192 315 203 333T232 361T271 371Q295 371 312 360T339 331T353 289H189ZM272 652L331 588L478 606L314 770H225L62 607L213 588L272 652Z" />
<glyph unicode="&#xeb;" horiz-adv-x="524" d="M502 200V247Q502 316 478 373T403 465T275 500Q201 500 144 469T55 380T22 242Q22 163 56 106T155 19T308 -12Q349 -12 385 -5T450 16T500 44L456 153Q429 138 396 127T319 115Q279 115 253 125T212 155T191 200H502ZM189
289Q192 315 203 333T232 361T271 371Q295 371 312 360T339 331T353 289H189ZM167 603Q198 603 219 624T240 677Q240 707 219 729T167 751Q136 751 114 729T92 677Q92 646 114 625T167 603ZM367 603Q399 603 420 624T442 677Q442 707 421 729T367 751Q338 751 316
729T293 677Q293 646 315 625T367 603Z" />
<glyph unicode="&#xec;" horiz-adv-x="261" d="M209 0V485H52V0H209ZM357 588L468 612L410 770H252L357 588Z" />
<glyph unicode="&#xed;" horiz-adv-x="261" d="M209 0V485H52V0H209ZM156 588L261 770H103L45 612L156 588Z" />
<glyph unicode="&#xee;" horiz-adv-x="261" d="M209 0V485H52V0H209ZM385 652L444 588L591 606L427 770H338L175 607L326 588L385 652Z" />
<glyph unicode="&#xef;" horiz-adv-x="261" d="M209 0V485H52V0H209ZM280 603Q311 603 332 624T353 677Q353 707 332 729T280 751Q249 751 227 729T205 677Q205 646 227 625T280 603ZM480 603Q512 603 533 624T555 677Q555 707 534 729T480 751Q451 751 429 729T406
677Q406 646 428 625T480 603Z" />
<glyph unicode="&#xf0;" horiz-adv-x="579" d="M557 262Q557 339 525 415T433 559T292 675T114 750L58 646Q139 619 201 579T307 486T372 373T395 242Q395 205 382 177T346 134T289 118Q257 118 234 134T197 178T184 243Q184 282 197 310T234 354T291 370Q316
370 342 364T393 344T438 309L500 396Q477 424 439 448T357 486T274 500Q205 500 148 469T57 381T22 243Q22 162 57 105T153 18T293 -11Q372 -11 431 22T523 116T557 262ZM106 479L442 647L390 747L55 578L106 479Z" />
<glyph unicode="&#xf1;" horiz-adv-x="589" d="M209 0V331Q225 340 244 350T284 366T323 373Q354 373 369 353T384 297V0H540V308Q540 363 524 406T470 475T369 501Q336 501 303 492T237 468T176 434L149 485H52V0H209ZM391 736Q391 723 384 715T366 706Q350 706
338 711T316 722Q305 729 292 734T259 740Q231 740 204 727T160 684T143 600H249Q250 609 258 619T277 630Q293 630 303 625T324 613Q334 607 346 601T379 595Q408 595 433 608T475 652T492 736H391Z" />
<glyph unicode="&#xf2;" horiz-adv-x="579" d="M288 -11Q209 -11 149 18T56 104T22 243Q23 324 57 381T152 469T290 500Q369 500 429 470T523 383T557 242Q557 163 522 106T427 19T288 -11ZM289 118Q322 118 345 133T382 177T395 242Q395 279 383 308T347 353T291
370Q259 370 235 354T197 310T184 243Q184 207 197 179T233 134T289 118ZM258 588L369 612L311 770H153L258 588Z" />
<glyph unicode="&#xf3;" horiz-adv-x="579" d="M288 -11Q209 -11 149 18T56 104T22 243Q23 324 57 381T152 469T290 500Q369 500 429 470T523 383T557 242Q557 163 522 106T427 19T288 -11ZM289 118Q322 118 345 133T382 177T395 242Q395 279 383 308T347 353T291
370Q259 370 235 354T197 310T184 243Q184 207 197 179T233 134T289 118ZM314 588L419 770H261L203 612L314 588Z" />
<glyph unicode="&#xf4;" horiz-adv-x="579" d="M288 -11Q209 -11 149 18T56 104T22 243Q23 324 57 381T152 469T290 500Q369 500 429 470T523 383T557 242Q557 163 522 106T427 19T288 -11ZM289 118Q322 118 345 133T382 177T395 242Q395 279 383 308T347 353T291
370Q259 370 235 354T197 310T184 243Q184 207 197 179T233 134T289 118ZM286 652L345 588L492 606L328 770H239L76 607L227 588L286 652Z" />
<glyph unicode="&#xf5;" horiz-adv-x="579" d="M288 -11Q209 -11 149 18T56 104T22 243Q23 324 57 381T152 469T290 500Q369 500 429 470T523 383T557 242Q557 163 522 106T427 19T288 -11ZM289 118Q322 118 345 133T382 177T395 242Q395 279 383 308T347 353T291
370Q259 370 235 354T197 310T184 243Q184 207 197 179T233 134T289 118ZM354 736Q354 723 347 715T329 706Q313 706 301 711T279 722Q268 729 255 734T222 740Q194 740 167 727T123 684T106 600H212Q213 609 221 619T240 630Q256 630 266 625T287 613Q297 607
309 601T342 595Q371 595 396 608T438 652T455 736H354Z" />
<glyph unicode="&#xf6;" horiz-adv-x="579" d="M288 -11Q209 -11 149 18T56 104T22 243Q23 324 57 381T152 469T290 500Q369 500 429 470T523 383T557 242Q557 163 522 106T427 19T288 -11ZM289 118Q322 118 345 133T382 177T395 242Q395 279 383 308T347 353T291
370Q259 370 235 354T197 310T184 243Q184 207 197 179T233 134T289 118ZM182 603Q213 603 234 624T255 677Q255 707 234 729T182 751Q151 751 129 729T107 677Q107 646 129 625T182 603ZM382 603Q414 603 435 624T457 677Q457 707 436 729T382 751Q353 751 331
729T308 677Q308 646 330 625T382 603Z" />
<glyph unicode="&#xf7;" horiz-adv-x="510" d="M255 364Q289 364 314 388T340 448Q340 483 315 508T255 533Q219 533 195 508T170 448Q170 413 194 389T255 364ZM470 333H30L40 215H480L470 333ZM255 12Q289 12 314 36T339 96Q339 132 314 156T255 181Q219 181
195 157T170 96Q170 61 194 37T255 12Z" />
<glyph unicode="&#xf8;" horiz-adv-x="579" d="M288 -11Q209 -11 149 18T56 104T22 243Q23 324 57 381T152 469T290 500Q369 500 429 470T523 383T557 242Q557 163 522 106T427 19T288 -11ZM289 118Q322 118 345 133T382 177T395 242Q395 279 383 308T347 353T291
370Q259 370 235 354T197 310T184 243Q184 207 197 179T233 134T289 118ZM256 83L171 130L315 388L402 336L256 83Z" />
<glyph unicode="&#xf9;" horiz-adv-x="589" d="M380 484V154Q364 145 345 135T305 119T266 112Q235 112 220 133T205 188V484H48V176Q48 121 64 78T118 9T220 -17Q252 -17 286 -8T352 17T412 50L449 -1H536V484H380ZM265 588L376 612L318 770H160L265 588Z" />
<glyph unicode="&#xfa;" horiz-adv-x="589" d="M380 484V154Q364 145 345 135T305 119T266 112Q235 112 220 133T205 188V484H48V176Q48 121 64 78T118 9T220 -17Q252 -17 286 -8T352 17T412 50L449 -1H536V484H380ZM321 588L426 770H268L210 612L321 588Z" />
<glyph unicode="&#xfb;" horiz-adv-x="589" d="M380 484V154Q364 145 345 135T305 119T266 112Q235 112 220 133T205 188V484H48V176Q48 121 64 78T118 9T220 -17Q252 -17 286 -8T352 17T412 50L449 -1H536V484H380ZM293 652L352 588L499 606L335 770H246L83 607L234
588L293 652Z" />
<glyph unicode="&#xfc;" horiz-adv-x="589" d="M380 484V154Q364 145 345 135T305 119T266 112Q235 112 220 133T205 188V484H48V176Q48 121 64 78T118 9T220 -17Q252 -17 286 -8T352 17T412 50L449 -1H536V484H380ZM188 603Q219 603 240 624T261 677Q261 707
240 729T188 751Q157 751 135 729T113 677Q113 646 135 625T188 603ZM388 603Q420 603 441 624T463 677Q463 707 442 729T388 751Q359 751 337 729T314 677Q314 646 336 625T388 603Z" />
<glyph unicode="&#xfd;" horiz-adv-x="533" d="M167 -12Q161 -30 140 -45T92 -73T42 -96L96 -221Q141 -210 183 -188T259 -132T308 -61L523 485H363L264 201L158 503L10 460L181 21L167 -12ZM287 588L392 770H234L176 612L287 588Z" />
<glyph unicode="&#xfe;" horiz-adv-x="565" d="M296 500Q370 500 425 471T511 386T542 247Q542 165 511 108T424 20T289 -11Q275 -11 255 -6T214 8V-209L58 -219V695L214 706V480Q235 489 256 494T296 500ZM283 114Q313 114 335 130T369 177T381 246Q381 286 369
314T335 358T279 374Q262 374 247 369T214 352V134Q232 124 248 119T283 114Z" />
<glyph unicode="&#xff;" horiz-adv-x="533" d="M167 -12Q161 -30 140 -45T92 -73T42 -96L96 -221Q141 -210 183 -188T259 -132T308 -61L523 485H363L264 201L158 503L10 460L181 21L167 -12ZM155 603Q186 603 207 624T228 677Q228 707 207 729T155 751Q124 751
102 729T80 677Q80 646 102 625T155 603ZM355 603Q387 603 408 624T430 677Q430 707 409 729T355 751Q326 751 304 729T281 677Q281 646 303 625T355 603Z" />
<glyph unicode="&#x2013;" horiz-adv-x="449" d="M409 335H30L41 212H419L409 335Z" />
<glyph unicode="&#x2014;" horiz-adv-x="562" d="M522 335H30L41 212H532L522 335Z" />
<glyph unicode="&#x2018;" horiz-adv-x="227" d="M108 442Q132 442 151 454T180 486T191 525Q191 552 176 573T143 600Q148 623 165 640T202 672L170 742Q129 724 96 691T44 619T25 541Q25 497 49 470T108 442Z" />
<glyph unicode="&#x2019;" horiz-adv-x="227" d="M113 742Q89 742 70 730T41 698T30 659Q30 642 37 627T56 600T79 584Q74 562 57 545T20 512L52 442Q93 462 126 494T178 566T197 644Q197 688 172 715T113 742Z" />
<glyph unicode="&#x201a;" horiz-adv-x="227" d="M113 147Q89 147 70 135T41 103T30 63Q30 46 37 31T56 4T79 -12Q74 -34 57 -51T20 -83L52 -154Q93 -135 126 -102T178 -30T197 48Q197 92 172 119T113 147Z" />
<glyph unicode="&#x201c;" horiz-adv-x="425" d="M113 442Q137 442 156 454T185 486T196 525Q196 552 181 573T148 600Q153 623 170 640T207 672L175 742Q134 724 101 691T49 619T30 541Q30 497 54 470T113 442ZM312 442Q335 442 354 454T384 486T395 525Q395
543 388 558T369 585T345 600Q351 623 368 640T405 672L372 742Q331 724 299 691T247 619T228 541Q228 497 252 470T312 442Z" />
<glyph unicode="&#x201d;" horiz-adv-x="424" d="M311 742Q288 742 269 730T239 698T228 659Q228 633 243 612T277 584Q271 562 254 545T217 512L250 442Q291 462 323 494T375 566T394 644Q394 688 370 715T311 742ZM113 742Q89 742 70 730T41 698T30 659Q30 642
37 627T56 600T79 584Q74 562 57 545T20 512L52 442Q93 462 126 494T178 566T197 644Q197 688 172 715T113 742Z" />
<glyph unicode="&#x201e;" horiz-adv-x="424" d="M113 146Q89 146 70 134T41 103T30 63Q30 46 37 31T56 4T79 -12Q74 -34 57 -51T20 -83L52 -154Q93 -135 126 -102T178 -30T197 48Q197 92 172 119T113 146ZM311 147Q288 147 269 135T239 103T228 63Q228 37 243
16T277 -12Q271 -34 254 -51T217 -83L250 -154Q291 -135 323 -102T375 -30T394 48Q394 92 370 119T311 147Z" />
<glyph unicode="&#x2022;" horiz-adv-x="293" d="M146 215Q178 215 204 230T247 272T263 331Q263 363 247 389T205 430T146 446Q113 446 87 431T46 389T30 331Q30 298 45 272T87 231T146 215Z" />
<glyph unicode="&#x2039;" horiz-adv-x="252" d="M30 220L204 70L232 184L158 249L232 312L204 427L30 277V220Z" />
<glyph unicode="&#x203a;" horiz-adv-x="251" d="M221 277L48 427L20 313L92 249L20 185L48 70L221 221V277Z" />
</font>
</defs>
</svg>
