<svg width="1353" height="430" viewBox="0 0 1353 430" fill="none" xmlns="http://www.w3.org/2000/svg">
<g clip-path="url(#clip0_611_33)">
<path fill-rule="evenodd" clip-rule="evenodd" d="M374 430C412.66 430 444 398.66 444 360V70C444 31.3401 412.66 0 374 0H70C31.3401 0 0 31.3401 0 70V360C0 398.66 31.3401 430 70 430H374ZM21 358.99C33.6263 371.368 50.9218 379 70 379H374C393.078 379 410.374 371.368 423 358.99V360C423 387.062 401.062 409 374 409H70C42.9381 409 21 387.062 21 360V358.99ZM205.775 280.705C216.352 294.683 290.802 242.942 285.755 176.13C280.707 109.318 232.434 92.7966 190.778 102.6C149.122 112.404 131.101 153.869 148.735 188.15C157.915 205.995 175.608 211.059 191.342 215.561C205.831 219.708 218.66 223.379 221.648 236.121C224.992 250.38 217.134 258.149 210.765 264.446C205.263 269.886 200.872 274.227 205.775 280.705Z" fill="white"/>
<path d="M995.063 142.994H976.765C972.899 142.994 969.765 146.128 969.765 149.994V182.142C969.765 186.008 972.899 189.142 976.765 189.142H995.579C1000.4 189.142 1004.61 188.202 1008.23 186.322C1012.01 184.271 1014.94 181.45 1017.01 177.861C1019.24 174.272 1020.36 170.255 1020.36 165.812C1020.36 160.684 1019.33 156.411 1017.26 152.993C1015.2 149.575 1012.27 147.096 1008.49 145.558C1004.87 143.849 1000.4 142.994 995.063 142.994Z" fill="white"/>
<path fill-rule="evenodd" clip-rule="evenodd" d="M475 70C475 31.3401 506.34 0 545 0H1283C1321.66 0 1353 31.3401 1353 70V360C1353 398.66 1321.66 430 1283 430H545C506.34 430 475 398.66 475 360V70ZM496 358.99V360C496 387.062 517.938 409 545 409H1283C1310.06 409 1332 387.062 1332 360V358.99C1319.37 371.368 1302.08 379 1283 379H545C525.922 379 508.626 371.368 496 358.99ZM742.778 114.319C745.729 115.938 746.735 119.587 745.374 122.666L736.415 142.933C734.931 146.291 731.11 147.915 727.623 146.767C724.079 145.6 720.969 144.684 718.293 144.02C714.335 142.994 710.721 142.311 707.451 141.969C704.181 141.456 700.567 141.2 696.609 141.2C689.725 141.2 683.013 143.422 676.473 147.865C670.106 152.138 664.857 158.291 660.727 166.324C656.596 174.186 654.531 183.416 654.531 194.013C654.531 202.217 655.736 209.566 658.145 216.061C660.727 222.385 664.083 227.769 668.213 232.212C672.343 236.656 676.99 240.075 682.153 242.467C687.488 244.689 692.909 245.8 698.416 245.8C704.783 245.8 710.807 244.946 716.486 243.237C719.513 242.235 722.368 241.111 725.053 239.867C728.751 238.152 733.299 239.413 735.154 243.043L746.578 265.406C748.243 268.664 747.127 272.687 743.816 274.244C740.752 275.685 737.407 276.972 733.781 278.103C727.93 279.983 721.821 281.436 715.453 282.462C709.258 283.487 703.148 284 697.125 284C682.841 284 670.02 281.864 658.661 277.591C647.475 273.147 637.924 266.908 630.007 258.875C622.263 250.842 616.326 241.356 612.195 230.418C608.065 219.479 606 207.43 606 194.269C606 180.938 608.237 168.717 612.712 157.608C617.186 146.327 623.468 136.67 631.556 128.637C639.645 120.433 649.196 114.11 660.21 109.666C671.224 105.222 683.185 103 696.092 103C701.944 103 707.967 103.598 714.163 104.795C720.358 105.82 726.381 107.444 732.233 109.666C736.039 111 739.554 112.551 742.778 114.319ZM900.436 106.333C904.302 106.333 907.436 109.467 907.436 113.333V135.994C907.436 139.86 904.302 142.994 900.436 142.994H862.807C858.941 142.994 855.807 146.128 855.807 149.994V273.667C855.807 277.533 852.673 280.667 848.807 280.667H815.825C811.959 280.667 808.825 277.533 808.825 273.667V149.994C808.825 146.128 805.691 142.994 801.825 142.994H764.196C760.33 142.994 757.196 139.86 757.196 135.994V113.333C757.196 109.467 760.33 106.333 764.196 106.333H900.436ZM929.782 106.333C925.916 106.333 922.782 109.467 922.782 113.333V273.667C922.782 277.533 925.916 280.667 929.782 280.667H962.765C966.631 280.667 969.765 277.533 969.765 273.667V232.803C969.765 228.937 972.899 225.803 976.765 225.803H996.741C999.357 225.803 1001.76 227.262 1002.96 229.586L1027.44 276.885C1028.64 279.208 1031.04 280.667 1033.66 280.667H1071.88C1077.24 280.667 1080.61 274.897 1077.98 270.23L1048.31 217.572C1046.52 214.4 1047.5 210.423 1050.25 208.035C1054.99 203.913 1058.97 198.983 1062.18 193.244C1066.65 185.552 1068.89 176.408 1068.89 165.812C1068.89 151.797 1065.54 140.431 1058.82 131.714C1052.28 122.997 1043.51 116.588 1032.49 112.486C1021.65 108.384 1009.69 106.333 996.612 106.333H929.782ZM1211.4 244.006C1214.94 244.006 1217.93 246.655 1218.35 250.174L1221.06 272.835C1221.56 277.001 1218.31 280.667 1214.11 280.667H1103.03C1099.16 280.667 1096.03 277.533 1096.03 273.667V113.333C1096.03 109.467 1099.16 106.333 1103.03 106.333H1136.01C1139.87 106.333 1143.01 109.467 1143.01 113.333V237.006C1143.01 240.872 1146.14 244.006 1150.01 244.006H1211.4Z" fill="white"/>
</g>
<defs>
<clipPath id="clip0_611_33">
<rect width="1353" height="430" fill="white"/>
</clipPath>
</defs>
</svg>
