<svg width="1765" height="430" viewBox="0 0 1765 430" fill="none" xmlns="http://www.w3.org/2000/svg">

<path fill-rule="evenodd" clip-rule="evenodd" d="M374 430C412.66 430 444 398.66 444 360V70C444 31.3401 412.66 0 374 0H70C31.3401 0 0 31.3401 0 70V360C0 398.66 31.3401 430 70 430H374ZM21 358.99C33.6263 371.368 50.9218 379 70 379H374C393.078 379 410.374 371.368 423 358.99V360C423 387.062 401.062 409 374 409H70C42.9381 409 21 387.062 21 360V358.99ZM205.775 280.705C216.352 294.683 290.802 242.942 285.755 176.13C280.707 109.318 232.434 92.7966 190.778 102.6C149.122 112.404 131.101 153.869 148.735 188.15C157.915 205.995 175.608 211.059 191.342 215.561C205.831 219.708 218.66 223.379 221.648 236.121C224.992 250.38 217.134 258.149 210.765 264.446C205.263 269.886 200.872 274.227 205.775 280.705Z" fill="currentColor"/>
<path d="M995.063 142.994H976.765C972.899 142.994 969.765 146.128 969.765 149.994V182.142C969.765 186.008 972.899 189.142 976.765 189.142H995.579C1000.4 189.142 1004.61 188.202 1008.23 186.322C1012.01 184.271 1014.94 181.45 1017.01 177.861C1019.24 174.272 1020.36 170.255 1020.36 165.812C1020.36 160.684 1019.33 156.411 1017.26 152.993C1015.2 149.575 1012.27 147.096 1008.49 145.558C1004.87 143.849 1000.4 142.994 995.063 142.994Z" fill="currentColor"/>
<path fill-rule="evenodd" clip-rule="evenodd" d="M1352.6 244H1310.79V137.92H1349.95C1357.33 137.92 1363.99 138.96 1369.92 141.04C1375.85 143.016 1380.53 146.188 1383.96 150.556C1387.49 154.924 1389.26 160.748 1389.26 168.028C1389.26 172.084 1388.12 175.724 1385.83 178.948C1383.64 182.068 1381.25 184.772 1378.65 187.06C1383.12 189.764 1386.77 193.248 1389.57 197.512C1392.48 201.776 1393.94 206.82 1393.94 212.644C1393.94 218.052 1392.85 222.784 1390.66 226.84C1388.59 230.792 1385.62 234.016 1381.77 236.512C1378.03 239.008 1373.66 240.88 1368.67 242.128C1363.68 243.376 1358.32 244 1352.6 244ZM1335.29 157.576H1347.92C1351.25 157.576 1354.06 157.94 1356.35 158.668C1358.74 159.396 1360.56 160.592 1361.8 162.256C1363.16 163.92 1363.83 166.156 1363.83 168.964C1363.83 171.356 1363 173.384 1361.34 175.048C1359.78 176.608 1357.64 177.752 1354.94 178.48C1352.24 179.208 1349.22 179.572 1345.89 179.572H1335.29V157.576ZM1335.29 199.072H1352.76C1357.64 199.072 1361.49 200.216 1364.3 202.504C1367.21 204.792 1368.67 208.068 1368.67 212.332C1368.67 214.932 1367.94 217.168 1366.48 219.04C1365.13 220.808 1363.21 222.16 1360.71 223.096C1358.32 224.032 1355.46 224.5 1352.13 224.5H1335.29V199.072Z" fill="currentColor"/>
<path fill-rule="evenodd" clip-rule="evenodd" d="M1470.96 212.8H1422.45C1423.07 215.504 1424.16 217.844 1425.72 219.82C1427.28 221.796 1429.41 223.356 1432.12 224.5C1434.82 225.54 1438.25 226.06 1442.41 226.06C1446.88 226.06 1450.84 225.488 1454.27 224.344C1457.8 223.096 1460.98 221.692 1463.79 220.132L1470.65 237.136C1468.57 238.696 1465.97 240.152 1462.85 241.504C1459.83 242.856 1456.45 243.896 1452.71 244.624C1448.96 245.456 1444.96 245.872 1440.7 245.872C1431.54 245.872 1423.59 244.312 1416.83 241.192C1410.17 237.968 1405.03 233.392 1401.38 227.464C1397.85 221.536 1396.08 214.464 1396.08 206.248C1396.08 197.928 1397.74 190.804 1401.07 184.876C1404.51 178.844 1409.19 174.216 1415.11 170.992C1421.04 167.664 1427.85 166 1435.55 166C1443.56 166 1450.16 167.82 1455.36 171.46C1460.67 174.996 1464.56 179.78 1467.06 185.812C1469.66 191.74 1470.96 198.292 1470.96 205.468V212.8ZM1422.13 198.916H1447.72C1447.4 196.42 1446.68 194.236 1445.53 192.364C1444.49 190.492 1443.09 188.984 1441.32 187.84C1439.55 186.696 1437.42 186.124 1434.93 186.124C1432.74 186.124 1430.71 186.644 1428.84 187.684C1426.97 188.724 1425.46 190.18 1424.32 192.052C1423.17 193.924 1422.45 196.212 1422.13 198.916Z" fill="currentColor"/>
<path d="M1527.81 188.932L1523.44 170.056H1506.59V146.968L1482.26 150.712V170.056H1471.34V188.932H1482.26V217.636C1482.26 223.876 1483.71 229.18 1486.62 233.548C1489.64 237.812 1493.59 241.036 1498.48 243.22C1503.37 245.404 1508.93 246.496 1515.17 246.496C1517.15 246.496 1519.33 246.184 1521.73 245.56C1524.12 245.04 1526.35 244.364 1528.43 243.532C1530.51 242.596 1532.12 241.66 1533.27 240.724L1526.25 223.72C1525.13 224.28 1524.01 224.745 1522.89 225.116C1522.35 225.297 1521.8 225.456 1521.26 225.592C1519.59 225.904 1518.03 226.06 1516.58 226.06C1513.46 226.06 1511.01 225.02 1509.25 222.94C1507.48 220.756 1506.59 217.896 1506.59 214.36V188.932H1527.81Z" fill="currentColor"/>
<path fill-rule="evenodd" clip-rule="evenodd" d="M1545.9 191.74L1539.35 173.02C1541.74 171.668 1544.65 170.472 1548.08 169.432C1551.62 168.392 1555.31 167.56 1559.16 166.936C1563.11 166.312 1566.64 166 1569.77 166C1576.21 166 1581.83 167.248 1586.61 169.744C1591.5 172.24 1595.25 175.724 1597.85 180.196C1600.55 184.668 1601.9 189.868 1601.9 195.796V244H1588.33L1582.56 236.044C1579.96 239.06 1577.1 241.452 1573.98 243.22C1570.86 244.988 1567.53 245.872 1563.99 245.872C1554.63 245.872 1547.67 243.532 1543.09 238.852C1538.51 234.172 1536.22 228.036 1536.22 220.444C1536.22 212.436 1538.93 206.612 1544.34 202.972C1549.75 199.228 1556.77 197.356 1565.4 197.356H1577.25L1577.1 196.888C1576.79 193.664 1575.64 191.22 1573.67 189.556C1571.79 187.788 1569.35 186.904 1566.33 186.904C1565.68 186.904 1565 186.925 1564.31 186.966C1563.74 187 1563.15 187.05 1562.56 187.113C1560.47 187.335 1558.24 187.733 1555.88 188.308C1552.03 189.244 1548.71 190.388 1545.9 191.74ZM1557.75 223.72C1557.13 222.68 1556.82 221.536 1556.82 220.288C1556.82 218.104 1557.6 216.18 1559.16 214.516C1560.72 212.852 1562.85 212.02 1565.55 212.02H1577.41V221.38C1575.33 223.252 1573.14 224.708 1570.86 225.748C1568.57 226.684 1566.33 227.152 1564.15 227.152C1562.8 227.152 1561.55 226.84 1560.4 226.216C1559.37 225.592 1558.48 224.76 1557.75 223.72Z" fill="currentColor"/>
<path fill-rule="evenodd" clip-rule="evenodd" d="M545 0C506.34 0 475 31.3401 475 70V360C475 398.66 506.34 430 545 430H1695C1733.66 430 1765 398.66 1765 360V70C1765 31.3401 1733.66 0 1695 0H545ZM496 360V358.99C508.626 371.368 525.922 379 545 379H1695C1714.08 379 1731.37 371.368 1744 358.99V360C1744 387.062 1722.06 409 1695 409H545C517.938 409 496 387.062 496 360ZM745.374 122.666C746.735 119.587 745.729 115.938 742.778 114.319C739.554 112.551 736.039 111 732.233 109.666C726.381 107.444 720.358 105.82 714.163 104.795C707.967 103.598 701.944 103 696.092 103C683.185 103 671.224 105.222 660.21 109.666C649.196 114.11 639.645 120.433 631.556 128.637C623.468 136.67 617.186 146.327 612.712 157.608C608.237 168.717 606 180.938 606 194.269C606 207.43 608.065 219.479 612.195 230.418C616.326 241.356 622.263 250.842 630.007 258.875C637.924 266.908 647.475 273.147 658.661 277.591C670.02 281.864 682.841 284 697.125 284C703.148 284 709.258 283.487 715.453 282.462C721.821 281.436 727.93 279.983 733.781 278.103C737.407 276.972 740.752 275.685 743.816 274.244C747.127 272.687 748.243 268.664 746.578 265.406L735.154 243.043C733.299 239.413 728.751 238.152 725.053 239.867C722.368 241.111 719.513 242.235 716.486 243.237C710.807 244.946 704.783 245.8 698.416 245.8C692.909 245.8 687.488 244.689 682.153 242.467C676.99 240.075 672.343 236.656 668.213 232.212C664.083 227.769 660.727 222.385 658.145 216.061C655.736 209.566 654.531 202.217 654.531 194.013C654.531 183.416 656.596 174.186 660.727 166.324C664.857 158.291 670.106 152.138 676.473 147.865C683.013 143.422 689.725 141.2 696.609 141.2C700.567 141.2 704.181 141.456 707.451 141.969C710.721 142.311 714.335 142.994 718.293 144.02C720.969 144.684 724.079 145.6 727.623 146.767C731.11 147.915 734.931 146.291 736.415 142.933L745.374 122.666ZM907.436 113.333C907.436 109.467 904.302 106.333 900.436 106.333H764.196C760.33 106.333 757.196 109.467 757.196 113.333V135.994C757.196 139.86 760.33 142.994 764.196 142.994H801.825C805.691 142.994 808.825 146.128 808.825 149.994V273.667C808.825 277.533 811.959 280.667 815.825 280.667H848.807C852.673 280.667 855.807 277.533 855.807 273.667V149.994C855.807 146.128 858.941 142.994 862.807 142.994H900.436C904.302 142.994 907.436 139.86 907.436 135.994V113.333ZM922.782 113.333C922.782 109.467 925.916 106.333 929.782 106.333H996.612C1009.69 106.333 1021.65 108.384 1032.49 112.486C1043.51 116.588 1052.28 122.997 1058.82 131.714C1065.54 140.431 1068.89 151.797 1068.89 165.812C1068.89 176.408 1066.65 185.552 1062.18 193.244C1058.97 198.983 1054.99 203.913 1050.25 208.035C1047.5 210.423 1046.52 214.4 1048.31 217.572L1077.98 270.23C1080.61 274.897 1077.24 280.667 1071.88 280.667H1033.66C1031.04 280.667 1028.64 279.208 1027.44 276.885L1002.96 229.586C1001.76 227.262 999.357 225.803 996.741 225.803H976.765C972.899 225.803 969.765 228.937 969.765 232.803V273.667C969.765 277.533 966.631 280.667 962.765 280.667H929.782C925.916 280.667 922.782 277.533 922.782 273.667V113.333ZM1218.35 250.174C1217.93 246.655 1214.94 244.006 1211.4 244.006H1150.01C1146.14 244.006 1143.01 240.872 1143.01 237.006V113.333C1143.01 109.467 1139.87 106.333 1136.01 106.333H1103.03C1099.16 106.333 1096.03 109.467 1096.03 113.333V273.667C1096.03 277.533 1099.16 280.667 1103.03 280.667H1214.11C1218.31 280.667 1221.56 277.001 1221.06 272.835L1218.35 250.174ZM1254 140C1254 121.775 1268.78 107 1287 107H1618C1636.22 107 1651 121.775 1651 140V250C1651 268.225 1636.22 283 1618 283H1287C1268.78 283 1254 268.225 1254 250V140Z" fill="currentColor"/>
</svg>
