<svg width="86" height="96" viewBox="0 0 86 96" fill="none" xmlns="http://www.w3.org/2000/svg">
<path d="M48.5471 14.107C50.5942 22.5886 49.9022 30.0494 47.0014 30.771C44.1007 31.4926 40.0896 25.202 38.0425 16.7203C35.9953 8.23873 36.6874 0.778021 39.5881 0.056374C42.4889 -0.665273 46.4999 5.62542 48.5471 14.107Z"/>
<path d="M82.3504 21.3992C77.8168 16.5942 68.7972 17.8966 62.2045 24.3081C55.6118 30.7196 53.9426 39.8123 58.4762 44.6173C63.0098 49.4222 72.0294 48.1199 78.6221 41.7084C85.2148 35.2969 86.884 26.2041 82.3504 21.3992Z"/>
<path d="M46.2926 94.9747C49.1934 94.253 49.7835 86.3702 47.6107 77.368C45.4379 68.3657 41.325 61.653 38.4242 62.3746C35.5235 63.0963 34.9333 70.9791 37.1061 79.9813C39.2789 88.9836 43.3918 95.6963 46.2926 94.9747Z"/>
<path d="M16.7223 25.7982C25.0912 28.2661 31.2064 32.5958 30.3809 35.4687C29.5555 38.3417 22.1021 38.67 13.7332 36.2021C5.36438 33.7341 -0.750778 29.4045 0.0746392 26.5315C0.900056 23.6586 8.35349 23.3302 16.7223 25.7982Z"/>
<path d="M71.0398 58.2396C79.9223 60.859 86.4539 65.3115 85.6285 68.1844C84.8031 71.0574 76.9332 71.2629 68.0507 68.6435C59.1681 66.024 52.6365 61.5716 53.4619 58.6986C54.2873 55.8257 62.1572 55.6201 71.0398 58.2396Z"/>
<path d="M26.1392 52.2116C24.0639 50.0603 17.2567 53.1913 10.935 59.205C4.61326 65.2187 1.17089 71.8377 3.24624 73.989C5.32159 76.1403 12.1288 73.0093 18.4505 66.9956C24.7722 60.9819 28.2146 54.3629 26.1392 52.2116Z"/>
</svg>
