<?xml version="1.0" standalone="no"?>
<!DOCTYPE svg PUBLIC "-//W3C//DTD SVG 1.1//EN" "http://www.w3.org/Graphics/SVG/1.1/DTD/svg11.dtd">
<svg xmlns="http://www.w3.org/2000/svg">
<defs >
<font id="MavenPro" horiz-adv-x="550" ><font-face
    font-family="Maven Pro"
    units-per-em="1000"
    panose-1="0 0 0 0 0 0 0 0 0 0"
    ascent="965"
    descent="-210"
    alphabetic="0" />
<glyph unicode=" " horiz-adv-x="276" />
<glyph unicode="!" horiz-adv-x="413" d="M158 184L141 667H284L266 184H158ZM146 0V114H278V0H146Z" />
<glyph unicode="&quot;" horiz-adv-x="422" d="M245 475L228 676H339L322 475H245ZM99 475L81 676H193L176 475H99Z" />
<glyph unicode="#" horiz-adv-x="618" d="M129 19L148 122H73V204H161L184 334H100V416H197L216 522H302L283 416H397L416 522H501L482 416H546V334H469L446 204H519V122H432L414 19H329L347 122H232L215 19H129ZM246 204H362L383 334H269L246 204Z" />
<glyph unicode="$" horiz-adv-x="577" d="M238 620V754H352V620H238ZM238 -98V40H352V-98H238ZM295 -14Q244 -14 203 -9T127 6T59 32V186Q105 149 163 130T273 111Q319 111 343 128T368 182Q368 209 346 225T286 254T203 283Q174 292 146 306T96 341T61 394T48
470Q48 511 63 549T109 617T190 664T305 682Q346 682 377 677T438 663T497 638V482Q474 501 446 517T386 545T321 557Q291 558 266 551T227 529T213 489Q213 461 230 445T277 419T344 396Q385 384 419 370T480 333T520 279T534 202Q534 142 506 93T425 15T295 -14Z"
/>
<glyph unicode="%" horiz-adv-x="822" d="M190 311Q103 311 64 357T25 495Q25 586 64 632T190 679Q278 679 316 633T355 495Q355 404 317 358T190 311ZM190 396Q203 396 216 403T238 432T248 495Q248 537 239 558T216 586T190 594Q178 594 164 587T141 558T131
495Q131 454 140 432T164 403T190 396ZM632 -11Q545 -11 506 35T467 173Q467 264 506 310T632 357Q720 357 758 311T797 173Q797 82 759 36T632 -11ZM632 74Q645 74 658 81T680 110T690 173Q690 215 681 236T658 264T632 272Q620 272 606 265T583 236T573 173Q573
132 582 110T606 81T632 74ZM152 -22L559 685H666L259 -22H152Z" />
<glyph unicode="&amp;" horiz-adv-x="685" d="M469 0L164 368Q144 394 124 430T103 504Q103 551 130 590T207 655T317 680Q378 680 422 659T491 600T516 516Q516 472 496 440T438 382T352 327L296 410Q328 427 345 442T370 471T377 501Q377 526 361 541T317 556Q292
556 275 540T257 500Q257 489 264 474T282 446T301 423L650 0H469ZM254 -13Q204 -13 165 2T97 43T55 101T41 170Q41 204 55 239T104 308T198 367L289 294Q262 279 243 260T213 221T203 184Q203 173 206 160T217 134T242 113T286 105Q316 105 346 123T393 163L467
73Q446 50 418 31T350 -1T254 -13ZM455 211Q468 228 476 248T489 284T494 303H604Q598 268 578 222T530 135L455 211Z" />
<glyph unicode="&apos;" horiz-adv-x="274" d="M99 475L81 676H193L176 475H99Z" />
<glyph unicode="(" horiz-adv-x="354" d="M200 -113Q166 -74 132 -12T75 132T52 306Q52 399 75 479T132 622T200 724H324Q311 698 293 657T258 561T229 443T218 306Q218 234 229 170T257 51T293 -45T324 -113H200Z" />
<glyph unicode=")" horiz-adv-x="354" d="M30 -113Q43 -87 61 -46T97 50T125 168T137 305Q137 377 126 441T97 560T62 656T30 724H155Q189 685 223 623T279 480T302 305Q302 212 280 132T223 -11T155 -113H30Z" />
<glyph unicode="*" horiz-adv-x="412" d="M172 460L179 532L119 488L84 550L164 581L84 612L119 674L179 630L172 702H243L237 630L297 674L331 612L252 581L331 550L297 488L237 532L243 460H172Z" />
<glyph unicode="+" horiz-adv-x="551" d="M227 119V251H94V347H227V480H323V347H455V251H323V119H227Z" />
<glyph unicode="," horiz-adv-x="351" d="M74 -112L148 84H270L178 -112H74Z" />
<glyph unicode="-" horiz-adv-x="464" d="M79 255V358H384V255H79Z" />
<glyph unicode="." horiz-adv-x="263" d="M59 0V141H204V0H59Z" />
<glyph unicode="/" horiz-adv-x="445" d="M-14 -98L353 756H460L92 -98H-14Z" />
<glyph unicode="0" horiz-adv-x="666" d="M333 -13Q183 -13 113 73T42 333Q42 506 112 592T333 679Q484 679 554 593T624 333Q624 160 554 74T333 -13ZM333 118Q356 118 378 125T419 155T448 220T459 333Q459 403 448 445T419 509T379 539T333 547Q310 547 288
539T247 509T219 445T208 333Q208 263 218 220T247 155T287 126T333 118Z" />
<glyph unicode="1" horiz-adv-x="470" d="M188 0V511L59 438V582L207 667H350V0H188Z" />
<glyph unicode="2" horiz-adv-x="608" d="M70 0V114Q104 134 144 164T222 230T292 304T343 380T362 452Q362 488 347 510T307 543T247 554Q199 554 158 533T76 479V618Q115 642 168 661T296 680Q370 680 421 656T498 586T524 475Q524 428 506 386T456 306T387
236T311 175T239 123L208 148H537V0H70Z" />
<glyph unicode="3" horiz-adv-x="595" d="M267 -8Q213 -8 164 7T72 44V182Q116 155 162 135T260 114Q317 114 350 135T383 196Q383 236 355 260T257 284H158V406H259Q307 406 330 426T353 476Q353 504 338 520T298 543T243 551Q209 551 173 543T85 509V633Q122
652 166 664T259 676Q305 676 347 666T423 633T476 577T496 494Q496 466 486 443T460 403T427 375T397 362Q417 356 439 342T481 305T513 254T525 188Q525 135 504 98T447 38T364 3T267 -8Z" />
<glyph unicode="4" horiz-adv-x="610" d="M326 0V179H39V295L338 667H489V301H573V179H489V0H326ZM177 301H326V486L177 301Z" />
<glyph unicode="5" horiz-adv-x="598" d="M281 -12Q216 -12 163 4T82 41V192Q99 175 126 159T187 131T260 120Q292 120 316 127T357 146T382 176T391 215Q391 251 376 272T336 302T281 312Q250 312 224 307T180 294T153 282L81 362L123 668H502V527H226L200 343L93
377Q134 415 191 432T323 450Q369 450 410 438T485 399T537 330T556 227Q556 157 533 111T471 38T383 0T281 -12Z" />
<glyph unicode="6" horiz-adv-x="625" d="M306 -12Q171 -12 108 70T44 308Q44 408 67 475T127 583T208 645T296 673T374 680Q424 680 460 673T519 655V520Q489 534 458 542T386 550Q352 550 324 542T275 516T238 473T214 413T206 337Q206 268 214 225T237 160T273
129T318 120Q346 120 365 128T395 151T412 182T418 217Q418 268 392 293T322 319Q288 319 264 308T226 275T203 221L167 289Q172 309 184 334T219 382T273 421T350 437Q467 436 524 380T581 213Q581 165 564 124T513 52T427 5T306 -12Z" />
<glyph unicode="7" horiz-adv-x="592" d="M133 0L383 556L408 519H67V667H547V573L310 0H133Z" />
<glyph unicode="8" horiz-adv-x="631" d="M316 -12Q246 -12 195 2T110 43T60 107T43 188Q43 222 54 248T82 293T119 325T156 345Q143 352 127 363T95 391T71 433T61 488Q61 550 88 593T172 658T316 680Q403 680 459 658T542 593T570 488Q570 457 561 433T537 392T506
363T476 346Q494 339 513 326T550 293T578 248T589 188Q589 144 573 107T522 44T437 3T316 -12ZM316 114Q347 114 366 124T397 149T413 182T418 215Q418 237 407 256T373 288T316 301Q282 301 260 289T226 257T214 215Q214 199 218 182T234 150T266 124T316 114ZM316
392Q337 392 357 401T390 427T404 471Q404 496 392 514T361 543T316 553Q291 553 272 543T240 515T228 471Q228 445 241 428T275 401T316 392Z" />
<glyph unicode="9" horiz-adv-x="628" d="M251 -12Q202 -12 165 -5T106 13V148Q136 135 167 127T239 118Q273 118 301 126T351 152T388 195T411 255T419 331Q419 400 411 443T388 508T352 539T305 548Q278 548 260 540T230 517T213 486T208 451Q208 401 234 375T304
349Q338 349 362 360T401 393T422 447L458 379Q454 359 441 334T406 286T352 247T275 231Q159 232 102 288T44 455Q44 503 61 544T111 616T192 663T305 680Q451 680 516 598T581 360Q581 260 559 193T499 85T417 23T330 -5T251 -12Z" />
<glyph unicode=":" horiz-adv-x="414" d="M143 339V460H268V339H143ZM143 39V160H268V39H143Z" />
<glyph unicode=";" horiz-adv-x="309" d="M36 -112L108 98H246L140 -112H36ZM105 319V460H250V319H105Z" />
<glyph unicode="&lt;" horiz-adv-x="666" d="M538 39L120 226V310L538 497V378L268 268L538 158V39Z" />
<glyph unicode="=" horiz-adv-x="638" d="M123 341V444H514V341H123ZM123 153V256H514V153H123Z" />
<glyph unicode="&gt;" horiz-adv-x="657" d="M121 39V158L391 268L121 378V497L539 310V226L121 39Z" />
<glyph unicode="?" horiz-adv-x="513" d="M180 185V209Q180 264 195 299T232 358T276 400T313 438T328 484Q328 518 314 535T277 559T225 566Q185 566 146 553T80 518V631Q93 640 117 650T173 667T242 675Q290 675 328 662T392 623T432 562T446 484Q446 440 431
413T394 364T350 323T313 275T298 205V185H180ZM173 0V114H305V0H173Z" />
<glyph unicode="@" horiz-adv-x="913" d="M409 -150Q370 -150 326 -139T238 -103T160 -40T103 54T82 182Q82 275 120 352T220 485T357 571T508 602Q547 602 592 591T681 556T761 493T819 401T841 276Q841 229 831 184T799 103T745 46T669 25Q644 25 626 34T597
58T580 85Q564 59 530 42T442 25Q367 25 325 58T282 150Q282 172 290 197T322 245T389 282T505 296Q520 296 534 295T563 293Q563 297 563 301T563 309Q561 326 554 339T530 360T478 368Q443 368 409 363T343 347L356 425Q383 434 417 441T485 449Q565 449 606
412T647 303Q647 265 640 227T632 149Q631 136 633 121T646 94T677 83Q698 83 723 103T766 166T785 275Q785 341 760 391T694 475T603 526T506 544Q436 544 370 516T252 438T170 321T140 180Q140 110 161 62T217 -17T289 -64T359 -87T411 -94Q475 -94 530 -81T634
-44L624 -108Q581 -128 528 -139T409 -150ZM442 110Q476 110 497 118T529 140T545 175T552 221Q541 223 530 223T505 223Q367 223 367 151Q367 134 378 125T406 113T442 110Z" />
<glyph unicode="A" horiz-adv-x="691" d="M13 0L265 667H442L678 0H512L299 629L378 636L166 0H13ZM155 144L188 263H491L506 144H155Z" />
<glyph unicode="B" horiz-adv-x="671" d="M71 0V667H354Q427 667 480 649T564 590T594 482Q594 437 572 408T519 362T461 334L443 369Q498 367 539 347T604 290T628 202Q628 132 595 88T505 22T381 0H71ZM233 125H369Q394 125 415 132T449 158T462 208Q462 231
454 246T433 269T402 282T366 286H233V125ZM233 405H363Q380 405 395 411T419 432T429 469Q429 510 407 525T353 541H233V405Z" />
<glyph unicode="C" horiz-adv-x="630" d="M366 -13Q206 -13 122 71T37 333Q37 505 118 593T366 682Q419 682 473 669T578 633V492Q526 526 478 541T388 556Q329 556 289 535T227 465T205 333Q205 250 226 202T290 134T395 113Q432 113 479 127T578 175V34Q550
20 515 10T441 -7T366 -13Z" />
<glyph unicode="D" horiz-adv-x="711" d="M71 0V667H339Q509 667 589 583T669 333Q669 169 589 85T339 0H71ZM233 125H320Q410 125 456 175T503 333Q503 443 457 492T320 542H233V125Z" />
<glyph unicode="E" horiz-adv-x="593" d="M71 0V667H528V542H233V397H489V271H233V125H528V0H71Z" />
<glyph unicode="F" horiz-adv-x="570" d="M71 0V667H525V542H233V383H485V256H233V0H71Z" />
<glyph unicode="G" horiz-adv-x="706" d="M368 -14Q270 -14 197 21T83 132T42 333Q42 455 82 532T196 645T368 682Q431 682 491 669T606 633V486Q546 517 495 536T388 555Q331 555 291 535T229 467T208 334Q208 251 229 203T290 133T381 112Q408 112 431 115T473
128V246H363V372H635V58Q573 24 506 5T368 -14Z" />
<glyph unicode="H" horiz-adv-x="710" d="M71 0V667H233V397H478V667H639V0H478V265H233V0H71Z" />
<glyph unicode="I" horiz-adv-x="304" d="M71 0V667H233V0H71Z" />
<glyph unicode="J" horiz-adv-x="478" d="M192 -13Q148 -13 108 -3T34 24V172Q68 149 96 133T153 117Q195 117 220 139T245 210V667H407V203Q407 140 388 99T339 33T270 -2T192 -13Z" />
<glyph unicode="K" horiz-adv-x="680" d="M226 200L171 303L437 667H641L226 200ZM71 0V667H233V0H71ZM371 413L662 0H459L246 309L371 413Z" />
<glyph unicode="L" horiz-adv-x="555" d="M71 0V667H233V127H523V0H71Z" />
<glyph unicode="M" horiz-adv-x="846" d="M71 0V667H236L465 348L377 345L614 667H775V0H613V545L645 493L417 190L191 498L226 522V0H71Z" />
<glyph unicode="N" horiz-adv-x="724" d="M71 0V667H209L552 205L504 105V667H653V0H531L182 456L220 529V0H71Z" />
<glyph unicode="O" horiz-adv-x="737" d="M368 -14Q269 -14 196 23T83 138T42 333Q42 504 128 592T368 680Q467 680 540 643T654 529T694 334Q694 162 609 74T368 -14ZM368 119Q419 119 454 140T508 208T527 334Q527 413 509 460T455 527T368 548Q317 548 282
527T229 459T210 332Q210 253 228 207T282 140T368 119Z" />
<glyph unicode="P" horiz-adv-x="664" d="M233 219V0H71V667H371Q488 667 555 614T622 450Q622 339 555 279T371 219H233ZM233 344H351Q377 344 395 351T425 371T441 401T447 439Q447 463 442 481T425 513T396 534T351 541H233V344Z" />
<glyph unicode="Q" horiz-adv-x="737" d="M368 -21Q210 -21 126 64T42 333Q42 509 122 598T368 687Q528 687 611 602T694 334Q694 157 614 68T368 -21ZM368 91Q419 92 454 114T508 188T527 334Q527 420 509 470T455 541T368 562Q317 562 282 541T229 469T210 332Q210
239 228 187T282 113T368 91ZM628 -7Q646 -7 659 -4T693 13V-87Q675 -97 652 -101T598 -105Q572 -105 545 -99T494 -77T452 -32T426 40Q418 79 404 108T370 154T326 170Q295 170 269 156T221 113V217Q238 242 274 262T357 283Q396 283 432 266T496 209T540 100Q552
52 574 23T628 -7Z" />
<glyph unicode="R" horiz-adv-x="709" d="M71 0V667H396Q509 667 573 615T637 455Q637 411 619 369T566 296T478 256L468 311L671 0H465L298 291L370 230H233V0H71ZM233 349H369Q412 349 437 372T462 448Q462 494 440 518T376 542H233V349Z" />
<glyph unicode="S" horiz-adv-x="577" d="M295 -14Q244 -14 203 -9T127 6T59 32V186Q105 149 163 130T273 111Q319 111 343 128T368 182Q368 209 346 225T286 254T203 283Q174 292 146 306T96 341T61 394T48 470Q48 511 63 549T109 617T190 664T305 682Q346 682
377 677T438 663T497 638V482Q474 501 446 517T386 545T321 557Q291 558 266 551T227 529T213 489Q213 461 230 445T277 419T344 396Q385 384 419 370T480 333T520 279T534 202Q534 142 506 93T425 15T295 -14Z" />
<glyph unicode="T" horiz-adv-x="587" d="M211 0V542H24V667H563V542H373V0H211Z" />
<glyph unicode="U" horiz-adv-x="726" d="M378 -21Q224 -21 148 44T71 249V667H240V256Q240 179 271 142T370 105Q432 105 466 142T501 256V667H655V249Q655 156 620 97T522 8T378 -21Z" />
<glyph unicode="V" horiz-adv-x="709" d="M262 0L13 667H200L389 100H336L524 666L696 667L435 0H262Z" />
<glyph unicode="W" horiz-adv-x="1010" d="M212 0L25 667H202L319 149H292L442 667H567L720 142H690L808 667H985L798 0H638L491 480H520L372 0H212Z" />
<glyph unicode="X" horiz-adv-x="679" d="M668 0H467L12 667H213L668 0ZM337 420L482 667H661L421 300L337 420ZM364 279L195 0H20L279 390L364 279Z" />
<glyph unicode="Y" horiz-adv-x="692" d="M274 0V288L21 667H220L410 348H335L508 667H669L413 248L436 334V0H274Z" />
<glyph unicode="Z" horiz-adv-x="634" d="M54 0V118L407 572L449 539H59V667H578V551L242 105L189 126H578V0H54Z" />
<glyph unicode="[" horiz-adv-x="396" d="M81 -116V696H347V564H243V17H347V-116H81Z" />
<glyph unicode="\" horiz-adv-x="411" d="M331 -98L-37 756H70L437 -98H331Z" />
<glyph unicode="]" horiz-adv-x="405" d="M71 -116V16H174V563H71V696H336V-116H71Z" />
<glyph unicode="^" horiz-adv-x="582" d="M124 469L252 690H319L449 469H352L286 600L220 469H124Z" />
<glyph unicode="_" horiz-adv-x="546" d="M0 -109V-24H546V-109H0Z" />
<glyph unicode="`" horiz-adv-x="261" d="M141 551L30 675H176L222 551H141Z" />
<glyph unicode="a" horiz-adv-x="572" d="M261 -15Q215 -15 175 -7T104 21T56 74T39 158Q39 205 58 240T118 294T219 313Q253 313 285 306T342 287T383 261L389 189Q369 201 341 208T281 215Q232 215 210 201T187 155Q187 136 198 121T227 98T266 90Q317 90 337
97T358 125V311Q358 357 329 377T245 398Q201 398 157 383T84 345V477Q110 493 164 507T287 521Q311 521 340 517T398 503T451 472T491 421T506 344L505 105Q505 62 476 36T393 -3T261 -15Z" />
<glyph unicode="b" horiz-adv-x="601" d="M298 -15Q256 -15 215 -10T140 10T86 50T66 117V693H212V417L184 464Q202 485 230 497T287 515T335 520Q447 520 505 453T564 255Q564 179 544 127T488 44T404 -1T298 -15ZM296 109Q340 109 366 126T403 175T415 246Q415
303 400 337T359 386T299 401Q279 401 255 396T212 380V156Q212 138 223 128T253 114T296 109Z" />
<glyph unicode="c" horiz-adv-x="502" d="M303 -13Q249 -13 201 3T116 51T58 132T37 246Q37 315 57 366T112 452T196 503T302 520Q343 520 386 512T463 488V360Q428 376 395 386T326 397Q263 397 225 366T186 263Q186 188 220 150T333 112Q370 112 404 125T464
152V25Q429 7 391 -3T303 -13Z" />
<glyph unicode="d" horiz-adv-x="609" d="M308 -15Q249 -15 200 -2T114 41T58 125T37 257Q37 380 97 451T279 522Q295 522 321 520T375 507T425 473L395 427V714H543V132Q543 95 523 68T470 22T394 -5T308 -15ZM314 110Q350 110 372 119T395 148V381Q377 391 357
396T317 402Q275 402 246 388T203 341T188 252Q188 208 200 177T239 128T314 110Z" />
<glyph unicode="e" horiz-adv-x="562" d="M295 -15Q219 -15 161 16T70 106T37 246Q37 378 102 450T290 523Q374 523 425 487T501 382T524 214H139L123 309H401L379 262Q378 343 356 376T284 409Q256 409 234 395T199 349T186 259Q186 187 220 148T331 109Q359
109 386 115T438 131T479 147V19Q443 4 399 -5T295 -15Z" />
<glyph unicode="f" horiz-adv-x="394" d="M104 0V392H29V506H105V518Q105 567 115 602T143 660T185 697T238 715T298 721Q314 721 333 719T364 711V579Q355 590 344 596T314 602Q301 602 290 599T271 589T259 569T254 536V506H364V392H253V0H104Z" />
<glyph unicode="g" horiz-adv-x="593" d="M260 -15Q191 -11 142 17T65 99T37 237Q37 321 58 376T116 463T207 507T325 520Q388 520 435 504T508 458T534 384V-6Q534 -59 517 -99T467 -167T386 -209T276 -223Q209 -223 162 -214T89 -190V-59Q104 -65 133 -75T198
-91T270 -98Q317 -98 342 -85T378 -50T388 0V82L417 61Q401 38 379 21T328 -5T260 -15ZM298 97Q324 97 346 102T388 119V351Q388 372 376 383T346 398T308 402Q262 402 236 382T198 327T186 246Q186 177 217 137T298 97Z" />
<glyph unicode="h" horiz-adv-x="611" d="M66 0V706H216V406L153 440Q193 475 247 497T359 520Q414 520 456 502T521 444T545 332V0H396V301Q396 351 372 373T300 396Q276 396 253 390T216 373L214 0H66Z" />
<glyph unicode="i" horiz-adv-x="286" d="M69 0V499H218L219 0H69ZM66 575V690H220V575H66Z" />
<glyph unicode="j" horiz-adv-x="304" d="M6 -193V-72Q34 -75 51 -68T77 -45T86 -4V506H235L237 -4Q237 -76 207 -117T125 -176T6 -193ZM83 582V697H238V582H83Z" />
<glyph unicode="k" horiz-adv-x="588" d="M182 279L368 506H549L268 209L182 279ZM214 0H66V697H216L214 0ZM295 344L562 0H373L189 243L295 344Z" />
<glyph unicode="l" horiz-adv-x="280" d="M214 0H66V697H214V0Z" />
<glyph unicode="m" horiz-adv-x="916" d="M536 340V0H387V310Q387 329 382 345T365 372T335 390T289 397Q266 397 247 392T215 380V0H66V463Q85 473 116 483T184 502T258 515T328 520Q396 520 442 503T512 446T536 340ZM383 429Q414 456 458 476T551 508T642 520Q710
520 756 503T826 446T850 340V0H701V310Q701 329 696 345T679 372T649 390T603 397Q580 397 561 391T529 374L383 429Z" />
<glyph unicode="n" horiz-adv-x="609" d="M66 463Q85 473 116 483T184 502T258 515T328 520Q396 520 444 503T517 446T543 340V0H394V310Q394 329 389 345T372 372T342 390T296 397Q273 397 250 392T215 380V0H66V463Z" />
<glyph unicode="o" horiz-adv-x="590" d="M294 -15Q166 -15 102 53T37 255Q37 398 102 460T294 523Q379 523 436 495T523 407T553 255Q553 122 486 54T294 -15ZM294 104Q331 104 355 121T392 172T405 255Q405 311 393 343T355 390T294 405Q256 405 232 390T197
343T185 255Q185 179 211 142T294 104Z" />
<glyph unicode="p" horiz-adv-x="601" d="M339 -15Q324 -15 295 -12T235 1T182 34L212 81V-181H66V399Q66 432 85 455T137 493T213 515T307 523Q383 523 440 498T530 412T563 248Q563 170 536 111T460 18T339 -15ZM295 105Q335 105 361 119T400 165T414 253Q414
299 404 331T370 380T301 398Q253 398 233 389T212 364V126Q231 115 254 110T295 105Z" />
<glyph unicode="q" horiz-adv-x="601" d="M308 520Q371 520 422 507T504 464T535 378V-195H389V88L417 41Q396 15 367 3T311 -12T269 -15Q158 -15 98 52T37 243Q37 322 57 375T113 460T199 506T308 520ZM306 396Q262 396 236 378T198 329T186 252Q186 199 201
167T244 120T306 105Q326 105 348 110T389 126V350Q389 366 378 376T347 391T306 396Z" />
<glyph unicode="r" horiz-adv-x="428" d="M66 0V453Q80 465 116 480T198 508T292 521Q339 521 366 514T407 496V387Q390 391 364 393T310 395T257 395T215 391V0H66Z" />
<glyph unicode="s" horiz-adv-x="482" d="M216 -15Q162 -15 124 -4T51 22V153Q72 139 98 125T155 101T222 92Q258 92 272 104T287 135Q287 152 272 162T233 180T182 193Q158 198 134 208T91 237T61 281T49 346Q49 395 68 427T118 480T185 508T255 516Q317 514
353 503T420 473V356Q386 375 353 391T276 408Q237 408 220 396T203 364Q203 345 214 334T245 317T287 304Q312 298 338 290T388 266T426 223T441 150Q440 89 408 53T326 1T216 -15Z" />
<glyph unicode="t" horiz-adv-x="413" d="M273 -20Q185 -20 142 21T99 139V392H25V506H99V645H255V506H366V392H255V158Q255 132 266 120T303 107Q318 107 336 113T366 128V0Q345 -11 321 -15T273 -20Z" />
<glyph unicode="u" horiz-adv-x="601" d="M304 -15Q234 -15 180 7T96 74T66 193V506H215V205Q215 157 236 134T305 110Q353 110 374 133T395 205V506H535V193Q535 85 473 35T304 -15Z" />
<glyph unicode="v" horiz-adv-x="621" d="M235 0L24 506H186L339 116L303 115L439 506H596L385 0H235Z" />
<glyph unicode="w" horiz-adv-x="827" d="M194 0L24 506H185L298 97L251 95L358 506H468L573 107H536L644 506H802L634 0H499L399 327L424 324L329 0H194Z" />
<glyph unicode="x" horiz-adv-x="594" d="M316 202L178 0H21L248 297L316 202ZM564 0H387L26 506H202L564 0ZM272 299L414 506H572L340 202L272 299Z" />
<glyph unicode="y" horiz-adv-x="593" d="M176 -196Q151 -196 127 -191T86 -178V-57Q102 -63 116 -65T145 -68Q170 -68 188 -57T219 -18T238 57L241 -28L24 506H195L310 151H295L409 506H569L370 -8Q343 -78 312 -119T246 -178T176 -196Z" />
<glyph unicode="z" horiz-adv-x="492" d="M45 0V118L316 425L331 394H51V506H447V390L195 81L190 119H447V0H45Z" />
<glyph unicode="{" horiz-adv-x="392" d="M326 -109Q245 -109 199 -89T133 -34T113 47V186Q113 209 101 222T76 240T59 247V343Q63 344 76 349T101 367T113 403V542Q113 588 132 623T198 678T326 698H349V566H331Q307 566 295 557T279 533T274 496V398Q274 355
249 330T190 294Q223 284 248 260T274 190V92Q274 72 278 57T295 32T331 23H349V-109H326Z" />
<glyph unicode="|" horiz-adv-x="477" d="M185 -99V666H299V-99H185Z" />
<glyph unicode="}" horiz-adv-x="386" d="M52 -109V23H70Q94 23 106 32T122 56T127 92V190Q127 235 153 259T211 294Q180 305 154 330T127 398V496Q127 517 123 532T106 557T70 566H52V698H75Q157 698 203 678T268 623T288 542V403Q288 380 300 367T325 349T342
343V247Q338 245 325 240T300 222T288 186V47Q288 1 269 -34T203 -89T75 -109H52Z" />
<glyph unicode="~" horiz-adv-x="516" d="M98 225V307Q124 338 150 343T204 340T258 317T313 295T366 291T418 327V245Q393 214 367 209T313 212T259 235T204 257T151 261T98 225Z" />
<glyph unicode="&#xa0;" horiz-adv-x="276" />
<glyph unicode="&#xa1;" horiz-adv-x="410" d="M138 -168L155 315H263L281 -168H138ZM143 386V499H276V386H143Z" />
<glyph unicode="&#xa2;" horiz-adv-x="502" d="M238 555V684H352V555H238ZM238 0V123H352V0H238ZM303 72Q249 72 201 88T116 136T58 216T37 331Q37 400 57 451T112 537T196 588T302 605Q343 605 386 597T463 573V445Q428 461 395 471T326 482Q263 482 225 451T186
348Q186 273 220 235T333 197Q370 197 404 210T464 237V110Q429 92 391 82T303 72Z" />
<glyph unicode="&#xa3;" horiz-adv-x="561" d="M129 485Q129 531 149 574T216 646T341 675Q388 675 430 661T505 627V493Q474 518 442 532T373 547Q339 547 316 537T281 508T269 465V133Q311 119 349 114T425 115T505 147V23Q469 -5 431 -11T355 -12T278 4T201
20T125 20T50 -15V112Q73 127 92 130T129 137V485ZM50 273V385H424V273H50Z" />
<glyph unicode="&#xa4;" horiz-adv-x="493" d="M245 156Q195 156 153 180T87 247T62 339Q62 390 86 431T153 497T245 522Q296 522 337 498T403 432T428 339Q428 289 404 247T338 181T245 156ZM245 254Q278 254 300 277T323 339Q323 377 301 400T245 424Q211 424
189 401T166 339Q166 301 188 278T245 254ZM112 270L178 203L104 131L39 196L112 270ZM388 545L453 480L381 406L314 473L388 545ZM178 473L112 406L39 480L104 545L178 473ZM453 196L388 131L314 203L381 270L453 196Z" />
<glyph unicode="&#xa5;" horiz-adv-x="691" d="M278 0V115H138V202H278V283H138V370H222L18 667H191L349 403L508 667H680L476 370H560V283H420V202H560V115H420V0H278Z" />
<glyph unicode="&#xa6;" horiz-adv-x="477" d="M299 218V-99H185V218H299ZM185 350V666H299V350H185Z" />
<glyph unicode="&#xa7;" horiz-adv-x="589" d="M256 -8Q198 -8 150 8T65 48V164Q101 135 142 118T238 100Q252 100 269 101T302 108T329 122T340 146Q340 160 323 170T276 191T203 215Q165 227 133 243T81 285T61 348Q61 374 73 392T104 422T145 440T185 447Q173
450 159 461T133 491T122 530Q122 569 139 597T185 642T253 667T335 676Q381 676 423 664T502 631V525Q463 547 429 557T354 567Q338 567 315 564T274 551T256 520Q256 511 266 502T298 483T356 463Q397 452 437 434T505 388T533 313Q533 291 522 275T493 250T458
235T426 227Q449 213 460 186T471 132Q471 66 414 29T256 -8ZM355 279Q375 281 387 289T399 308Q399 319 389 329T359 347T309 364Q291 369 274 373T245 383Q223 382 209 374T194 351Q194 346 198 340T217 328T260 312Q280 306 304 298T355 279Z" />
<glyph unicode="&#xa8;" horiz-adv-x="430" d="M242 558V658H371V558H242ZM59 558V658H187V558H59Z" />
<glyph unicode="&#xa9;" horiz-adv-x="778" d="M389 -8Q319 -8 257 18T148 92T75 201T48 333Q48 404 74 466T148 575T257 648T389 675Q460 675 522 649T631 575T704 466T731 333Q731 263 705 201T631 92T522 19T389 -8ZM395 134Q360 134 328 143T269 175T228 237T213
334Q213 392 228 430T269 491T327 523T395 533Q426 533 457 526T519 507V435Q488 448 460 454T400 461Q370 461 347 450T310 411T296 334Q296 285 309 257T346 218T400 207Q431 207 459 213T519 233V160Q489 148 458 141T395 134ZM389 47Q449 47 501 69T592 130T654
222T676 333Q676 392 654 444T593 536T501 598T389 620Q331 620 279 598T187 537T125 445T103 333Q103 274 125 222T187 131T279 69T389 47Z" />
<glyph unicode="&#xaa;" horiz-adv-x="403" d="M194 381Q168 381 146 386T106 402T78 431T68 475Q68 516 92 538T172 561Q199 561 215 557T237 549Q237 579 225 595T187 611Q164 611 139 606T96 594V656Q116 664 142 669T193 675Q258 675 291 645T325 556V474Q325
446 316 428T290 399T249 385T194 381ZM197 441Q215 441 227 448T239 471V506Q235 508 225 510T201 513Q190 513 180 510T162 499T155 478Q155 465 160 457T175 445T197 441Z" />
<glyph unicode="&#xab;" horiz-adv-x="627" d="M429 64L260 255L429 445H573L392 255L573 64H429ZM202 64L33 255L202 445H347L166 255L347 64H202Z" />
<glyph unicode="&#xac;" horiz-adv-x="631" d="M442 148V236H97V331H534V148H442Z" />
<glyph unicode="&#xad;" horiz-adv-x="600" d="M79 255V358H384V255H79Z" />
<glyph unicode="&#xae;" horiz-adv-x="778" d="M390 -8Q320 -8 258 18T149 92T76 201T49 333Q49 404 75 466T149 575T258 648T390 675Q461 675 523 649T632 575T705 466T732 333Q732 263 706 201T632 92T523 19T390 -8ZM390 47Q449 47 501 69T593 130T655 222T677
333Q677 392 655 444T593 536T501 598T390 620Q331 620 279 598T188 537T126 445T104 333Q104 274 126 222T187 131T279 69T390 47ZM250 139V528H401Q468 528 509 497T550 406Q550 379 543 359T523 325T497 303T468 290L566 139H473L392 277H333V139H250ZM333 342H404Q426
342 439 350T460 371T467 400Q467 417 460 430T440 451T404 459H333V342Z" />
<glyph unicode="&#xaf;" horiz-adv-x="397" d="M61 552V647H337V552H61Z" />
<glyph unicode="&#xb0;" horiz-adv-x="387" d="M191 448Q138 448 110 476T82 558Q82 612 110 640T191 669Q244 669 272 641T300 558Q300 504 272 476T191 448ZM191 499Q220 499 233 513T246 559Q246 590 233 604T191 618Q162 618 149 604T136 559Q136 527 149
513T191 499Z" />
<glyph unicode="&#xb1;" horiz-adv-x="585" d="M247 164V296H114V392H247V524H343V392H475V296H343V164H247ZM114 14V106H475V14H114Z" />
<glyph unicode="&#xb2;" horiz-adv-x="336" d="M46 463V525Q66 540 90 558T137 597T174 641T189 690Q189 716 173 728T135 741Q106 741 86 731T49 709V794Q70 807 97 817T156 827Q210 827 240 811T284 769T297 716Q297 682 279 650T229 592T160 547L150 560H300V463H46Z" />
<glyph unicode="&#xb3;" horiz-adv-x="331" d="M149 459Q120 459 94 467T44 486V567Q68 553 87 544T131 535Q155 535 172 546T189 577Q189 595 175 607T129 620H90V684H131Q150 684 161 693T172 719Q172 733 157 740T122 748Q104 748 86 743T51 729V803Q71 813
95 819T145 826Q177 826 208 816T260 784T281 728Q281 708 272 693T250 669T228 657Q246 651 261 639T287 609T297 564Q297 536 284 516T250 483T202 465T149 459Z" />
<glyph unicode="&#xb4;" horiz-adv-x="262" d="M62 551L109 675H255L144 551H62Z" />
<glyph unicode="&#xb5;" horiz-adv-x="636" d="M99 -210V499H241V177Q241 162 246 146T273 117T340 105Q362 105 380 108T414 115V499H556V49Q553 48 533 39T482 20T409 1T319 -7Q301 -7 286 -4T259 3T241 8V-210H99Z" />
<glyph unicode="&#xb6;" horiz-adv-x="504" d="M335 0V203H298Q172 203 106 263T39 436Q39 548 105 607T298 667H449V0H335Z" />
<glyph unicode="&#xb7;" horiz-adv-x="347" d="M108 213V334H233V213H108Z" />
<glyph unicode="&#xb8;" horiz-adv-x="276" d="M46 -133L136 -5H232L180 -133H46Z" />
<glyph unicode="&#xb9;" horiz-adv-x="245" d="M81 462V747L96 715L28 675V776L100 821H185V462H81Z" />
<glyph unicode="&#xba;" horiz-adv-x="422" d="M208 389Q169 389 139 404T92 450T75 532Q75 583 92 614T139 661T208 676Q247 676 277 661T324 615T341 532Q341 482 324 451T277 404T208 389ZM208 449Q235 449 248 469T262 532Q262 575 249 595T208 616Q181 616
168 596T154 532Q154 490 167 470T208 449Z" />
<glyph unicode="&#xbb;" horiz-adv-x="636" d="M283 64L463 255L283 445H427L597 255L427 64H283ZM56 64L237 255L56 445H201L370 255L201 64H56Z" />
<glyph unicode="&#xbc;" horiz-adv-x="735" d="M81 313V598L96 566L28 526V627L100 672H185V313H81ZM63 -22L470 685H577L170 -22H63ZM542 0V83H389V158L550 359H640V163H685V83H640V0H542ZM477 163H542V275L569 279L477 163Z" />
<glyph unicode="&#xbd;" horiz-adv-x="737" d="M81 313V598L96 566L28 526V627L100 672H185V313H81ZM61 -22L468 685H575L168 -22H61ZM433 0V62Q453 77 477 95T524 134T561 178T576 227Q576 253 560 265T522 278Q493 278 473 268T436 246V331Q457 344 484 354T543
364Q597 364 627 348T671 306T684 253Q684 219 666 187T616 129T547 84L537 97H687V0H433Z" />
<glyph unicode="&#xbe;" horiz-adv-x="785" d="M149 318Q120 318 94 326T44 345V426Q68 412 87 403T131 394Q155 394 172 405T189 436Q189 454 175 466T129 479H90V543H131Q150 543 161 552T172 578Q172 592 157 599T122 607Q104 607 86 602T51 588V662Q71 672
95 678T145 685Q177 685 208 675T260 643T281 587Q281 567 272 552T250 528T228 516Q246 510 261 498T287 468T297 423Q297 395 284 375T250 342T202 324T149 318ZM120 -22L527 685H634L227 -22H120ZM592 0V83H439V158L600 359H690V163H735V83H690V0H592ZM527 163H592V275L619
279L527 163Z" />
<glyph unicode="&#xbf;" horiz-adv-x="512" d="M282 -176Q234 -176 196 -163T132 -124T92 -63T78 16Q78 59 93 87T130 135T174 176T211 224T226 294V314H344V290Q344 235 329 200T292 141T248 99T211 62T196 15Q196 -18 210 -35T247 -60T299 -67Q339 -67 378 -53T444
-19V-132Q432 -140 408 -150T351 -168T282 -176ZM219 386V499H351V386H219Z" />
<glyph unicode="&#xc0;" horiz-adv-x="691" d="M13 0L265 667H442L678 0H512L299 629L378 636L166 0H13ZM155 144L188 263H491L506 144H155ZM310 716L213 827H345L392 716H310Z" />
<glyph unicode="&#xc1;" horiz-adv-x="691" d="M13 0L265 667H442L678 0H512L299 629L378 636L166 0H13ZM155 144L188 263H491L506 144H155ZM307 719L344 832H500L382 719H307Z" />
<glyph unicode="&#xc2;" horiz-adv-x="691" d="M13 0L265 667H442L678 0H512L299 629L378 636L166 0H13ZM155 144L188 263H491L506 144H155ZM198 710L285 831H407L494 710H395L346 769L297 710H198Z" />
<glyph unicode="&#xc3;" horiz-adv-x="691" d="M13 0L265 667H442L678 0H512L299 629L378 636L166 0H13ZM155 144L188 263H491L506 144H155ZM238 720H169Q167 758 181 790T221 841T282 860Q308 860 328 851T366 829T400 806T434 796Q451 796 460 810T467 855H540Q542
812 527 781T485 734T428 717Q396 717 374 727T335 749T305 771T276 781Q255 781 246 762T238 720Z" />
<glyph unicode="&#xc4;" horiz-adv-x="691" d="M13 0L265 667H442L678 0H512L299 629L378 636L166 0H13ZM155 144L188 263H491L506 144H155ZM370 703V803H499V703H370ZM187 703V803H315V703H187Z" />
<glyph unicode="&#xc5;" horiz-adv-x="691" d="M13 0L265 667H442L678 0H512L299 629L378 636L166 0H13ZM155 144L188 263H491L506 144H155ZM345 665Q287 665 257 689T226 760Q226 805 256 830T345 855Q403 855 433 830T464 760Q464 714 434 690T345 665ZM345
723Q372 723 382 731T393 760Q393 779 383 787T345 796Q319 796 308 788T297 760Q297 739 308 731T345 723Z" />
<glyph unicode="&#xc6;" horiz-adv-x="1028" d="M516 621L589 610L194 0H13L478 667H964V541H677V400H924V273H677V126H964V0H516V621ZM579 147H195L247 263H591L579 147Z" />
<glyph unicode="&#xc7;" horiz-adv-x="630" d="M366 -13Q206 -13 122 71T37 333Q37 505 118 593T366 682Q419 682 473 669T578 633V492Q526 526 478 541T388 556Q329 556 289 535T227 465T205 333Q205 250 226 202T290 134T395 113Q432 113 479 127T578 175V34Q550
20 515 10T441 -7T366 -13ZM224 -122L314 6H410L358 -122H224Z" />
<glyph unicode="&#xc8;" horiz-adv-x="593" d="M71 0V667H528V542H233V397H489V271H233V125H528V0H71ZM268 716L171 827H303L350 716H268Z" />
<glyph unicode="&#xc9;" horiz-adv-x="593" d="M71 0V667H528V542H233V397H489V271H233V125H528V0H71ZM264 719L301 832H457L339 719H264Z" />
<glyph unicode="&#xca;" horiz-adv-x="593" d="M71 0V667H528V542H233V397H489V271H233V125H528V0H71ZM155 710L242 831H364L451 710H352L303 769L254 710H155Z" />
<glyph unicode="&#xcb;" horiz-adv-x="593" d="M71 0V667H528V542H233V397H489V271H233V125H528V0H71ZM327 703V803H456V703H327ZM144 703V803H272V703H144Z" />
<glyph unicode="&#xcc;" horiz-adv-x="304" d="M71 0V667H233V0H71ZM122 716L25 827H157L204 716H122Z" />
<glyph unicode="&#xcd;" horiz-adv-x="304" d="M71 0V667H233V0H71ZM118 719L155 832H311L193 719H118Z" />
<glyph unicode="&#xce;" horiz-adv-x="304" d="M71 0V667H233V0H71ZM9 710L96 831H218L305 710H206L157 769L108 710H9Z" />
<glyph unicode="&#xcf;" horiz-adv-x="304" d="M71 0V667H233V0H71ZM181 703V803H310V703H181ZM-2 703V803H126V703H-2Z" />
<glyph unicode="&#xd0;" horiz-adv-x="711" d="M71 0V667H339Q509 667 589 583T669 333Q669 169 589 85T339 0H71ZM233 125H320Q410 125 456 175T503 333Q503 443 457 492T320 542H233V125ZM261 288V379H562V288H261Z" />
<glyph unicode="&#xd1;" horiz-adv-x="724" d="M71 0V667H209L552 205L504 105V667H653V0H531L182 456L220 529V0H71ZM255 720H186Q184 758 198 790T238 841T299 860Q325 860 345 851T383 829T417 806T451 796Q468 796 477 810T484 855H557Q559 812 544 781T502
734T445 717Q413 717 391 727T352 749T322 771T293 781Q272 781 263 762T255 720Z" />
<glyph unicode="&#xd2;" horiz-adv-x="737" d="M368 -14Q269 -14 196 23T83 138T42 333Q42 504 128 592T368 680Q467 680 540 643T654 529T694 334Q694 162 609 74T368 -14ZM368 119Q419 119 454 140T508 208T527 334Q527 413 509 460T455 527T368 548Q317 548
282 527T229 459T210 332Q210 253 228 207T282 140T368 119ZM335 737L238 848H370L417 737H335Z" />
<glyph unicode="&#xd3;" horiz-adv-x="737" d="M368 -14Q269 -14 196 23T83 138T42 333Q42 504 128 592T368 680Q467 680 540 643T654 529T694 334Q694 162 609 74T368 -14ZM368 119Q419 119 454 140T508 208T527 334Q527 413 509 460T455 527T368 548Q317 548
282 527T229 459T210 332Q210 253 228 207T282 140T368 119ZM331 740L368 853H524L406 740H331Z" />
<glyph unicode="&#xd4;" horiz-adv-x="737" d="M368 -14Q269 -14 196 23T83 138T42 333Q42 504 128 592T368 680Q467 680 540 643T654 529T694 334Q694 162 609 74T368 -14ZM368 119Q419 119 454 140T508 208T527 334Q527 413 509 460T455 527T368 548Q317 548
282 527T229 459T210 332Q210 253 228 207T282 140T368 119ZM222 731L309 852H431L518 731H419L370 790L321 731H222Z" />
<glyph unicode="&#xd5;" horiz-adv-x="737" d="M368 -14Q269 -14 196 23T83 138T42 333Q42 504 128 592T368 680Q467 680 540 643T654 529T694 334Q694 162 609 74T368 -14ZM368 119Q419 119 454 140T508 208T527 334Q527 413 509 460T455 527T368 548Q317 548
282 527T229 459T210 332Q210 253 228 207T282 140T368 119ZM263 741H194Q192 779 206 811T246 862T307 881Q333 881 353 872T391 850T425 827T459 817Q476 817 485 831T492 876H565Q567 833 552 802T510 755T453 738Q421 738 399 748T360 770T330 792T301 802Q280
802 271 783T263 741Z" />
<glyph unicode="&#xd6;" horiz-adv-x="737" d="M368 -14Q269 -14 196 23T83 138T42 333Q42 504 128 592T368 680Q467 680 540 643T654 529T694 334Q694 162 609 74T368 -14ZM368 119Q419 119 454 140T508 208T527 334Q527 413 509 460T455 527T368 548Q317 548
282 527T229 459T210 332Q210 253 228 207T282 140T368 119ZM394 724V824H523V724H394ZM211 724V824H339V724H211Z" />
<glyph unicode="&#xd7;" horiz-adv-x="518" d="M73 76L211 256L74 436H170L260 319L351 436H447L309 256L447 76H351L260 193L170 76H73Z" />
<glyph unicode="&#xd8;" horiz-adv-x="737" d="M24 0L609 666H717L130 0H24ZM368 -14Q269 -14 196 23T83 138T42 333Q42 504 128 592T368 680Q467 680 540 643T654 529T694 334Q694 162 609 74T368 -14ZM368 119Q419 119 454 140T508 208T527 334Q527 413 509
460T455 527T368 548Q317 548 282 527T229 459T210 332Q210 253 228 207T282 140T368 119Z" />
<glyph unicode="&#xd9;" horiz-adv-x="726" d="M378 -21Q224 -21 148 44T71 249V667H240V256Q240 179 271 142T370 105Q432 105 466 142T501 256V667H655V249Q655 156 620 97T522 8T378 -21ZM327 723L230 834H362L409 723H327Z" />
<glyph unicode="&#xda;" horiz-adv-x="726" d="M378 -21Q224 -21 148 44T71 249V667H240V256Q240 179 271 142T370 105Q432 105 466 142T501 256V667H655V249Q655 156 620 97T522 8T378 -21ZM323 726L360 839H516L398 726H323Z" />
<glyph unicode="&#xdb;" horiz-adv-x="726" d="M378 -21Q224 -21 148 44T71 249V667H240V256Q240 179 271 142T370 105Q432 105 466 142T501 256V667H655V249Q655 156 620 97T522 8T378 -21ZM215 717L302 838H424L511 717H412L363 776L314 717H215Z" />
<glyph unicode="&#xdc;" horiz-adv-x="726" d="M378 -21Q224 -21 148 44T71 249V667H240V256Q240 179 271 142T370 105Q432 105 466 142T501 256V667H655V249Q655 156 620 97T522 8T378 -21ZM387 710V810H516V710H387ZM204 710V810H332V710H204Z" />
<glyph unicode="&#xdd;" horiz-adv-x="692" d="M274 0V288L21 667H220L410 348H335L508 667H669L413 248L436 334V0H274ZM331 719L368 832H524L406 719H331Z" />
<glyph unicode="&#xde;" horiz-adv-x="628" d="M86 0V667H228V567H327Q446 567 510 508T575 341Q575 233 511 174T327 115H228V0H86ZM228 235H313Q350 235 373 244T410 270T428 304T433 341Q433 360 428 378T410 413T374 438T313 448H228V235Z" />
<glyph unicode="&#xdf;" horiz-adv-x="635" d="M66 0V436Q66 511 94 569T177 662T313 697Q391 697 448 676T538 619T570 535Q570 501 558 476T526 431T487 401T451 385Q483 375 516 353T573 291T597 188Q597 132 574 86T505 13T388 -15Q363 -16 335 -12T274 1V124Q300
110 323 104T365 98Q404 98 425 122T447 194Q447 232 429 255T382 288T322 299V419Q367 419 391 439T415 499Q415 522 404 539T371 564T322 573Q272 573 244 539T216 440V0H66Z" />
<glyph unicode="&#xe0;" horiz-adv-x="572" d="M261 -15Q215 -15 175 -7T104 21T56 74T39 158Q39 205 58 240T118 294T219 313Q253 313 285 306T342 287T383 261L389 189Q369 201 341 208T281 215Q232 215 210 201T187 155Q187 136 198 121T227 98T266 90Q317
90 337 97T358 125V311Q358 357 329 377T245 398Q201 398 157 383T84 345V477Q110 493 164 507T287 521Q311 521 340 517T398 503T451 472T491 421T506 344L505 105Q505 62 476 36T393 -3T261 -15ZM246 572L135 696H281L327 572H246Z" />
<glyph unicode="&#xe1;" horiz-adv-x="572" d="M261 -15Q215 -15 175 -7T104 21T56 74T39 158Q39 205 58 240T118 294T219 313Q253 313 285 306T342 287T383 261L389 189Q369 201 341 208T281 215Q232 215 210 201T187 155Q187 136 198 121T227 98T266 90Q317
90 337 97T358 125V311Q358 357 329 377T245 398Q201 398 157 383T84 345V477Q110 493 164 507T287 521Q311 521 340 517T398 503T451 472T491 421T506 344L505 105Q505 62 476 36T393 -3T261 -15ZM237 572L284 696H430L319 572H237Z" />
<glyph unicode="&#xe2;" horiz-adv-x="572" d="M261 -15Q215 -15 175 -7T104 21T56 74T39 158Q39 205 58 240T118 294T219 313Q253 313 285 306T342 287T383 261L389 189Q369 201 341 208T281 215Q232 215 210 201T187 155Q187 136 198 121T227 98T266 90Q317
90 337 97T358 125V311Q358 357 329 377T245 398Q201 398 157 383T84 345V477Q110 493 164 507T287 521Q311 521 340 517T398 503T451 472T491 421T506 344L505 105Q505 62 476 36T393 -3T261 -15ZM143 578L230 699H352L439 578H340L291 637L242 578H143Z" />
<glyph unicode="&#xe3;" horiz-adv-x="572" d="M261 -15Q215 -15 175 -7T104 21T56 74T39 158Q39 205 58 240T118 294T219 313Q253 313 285 306T342 287T383 261L389 189Q369 201 341 208T281 215Q232 215 210 201T187 155Q187 136 198 121T227 98T266 90Q317
90 337 97T358 125V311Q358 357 329 377T245 398Q201 398 157 383T84 345V477Q110 493 164 507T287 521Q311 521 340 517T398 503T451 472T491 421T506 344L505 105Q505 62 476 36T393 -3T261 -15ZM175 566H106Q104 604 118 636T158 687T219 706Q245 706 265 697T303
675T337 652T371 642Q388 642 397 656T404 701H477Q479 658 464 627T422 580T365 563Q333 563 311 573T272 595T242 617T213 627Q192 627 183 608T175 566Z" />
<glyph unicode="&#xe4;" horiz-adv-x="572" d="M261 -15Q215 -15 175 -7T104 21T56 74T39 158Q39 205 58 240T118 294T219 313Q253 313 285 306T342 287T383 261L389 189Q369 201 341 208T281 215Q232 215 210 201T187 155Q187 136 198 121T227 98T266 90Q317
90 337 97T358 125V311Q358 357 329 377T245 398Q201 398 157 383T84 345V477Q110 493 164 507T287 521Q311 521 340 517T398 503T451 472T491 421T506 344L505 105Q505 62 476 36T393 -3T261 -15ZM318 579V679H447V579H318ZM135 579V679H263V579H135Z" />
<glyph unicode="&#xe5;" horiz-adv-x="572" d="M261 -15Q215 -15 175 -7T104 21T56 74T39 158Q39 205 58 240T118 294T219 313Q253 313 285 306T342 287T383 261L389 189Q369 201 341 208T281 215Q232 215 210 201T187 155Q187 136 198 121T227 98T266 90Q317
90 337 97T358 125V311Q358 357 329 377T245 398Q201 398 157 383T84 345V477Q110 493 164 507T287 521Q311 521 340 517T398 503T451 472T491 421T506 344L505 105Q505 62 476 36T393 -3T261 -15ZM284 556Q226 556 196 580T165 651Q165 696 195 721T284 746Q342
746 372 721T403 651Q403 605 373 581T284 556ZM284 614Q311 614 321 622T332 651Q332 670 322 678T284 687Q258 687 247 679T236 651Q236 630 247 622T284 614Z" />
<glyph unicode="&#xe6;" horiz-adv-x="882" d="M441 47Q408 23 359 1T245 -21Q189 -21 142 -5T67 49T39 152Q39 200 60 236T124 292T228 313Q257 313 287 307T343 289T383 263L389 189Q369 201 341 208T281 215Q231 215 209 198T187 147Q187 128 197 114T227 92T272
84Q293 84 317 87T362 98T395 120L441 47ZM358 200V309Q358 355 329 375T245 396Q201 396 157 381T84 342V477Q110 493 164 507T287 521Q311 521 340 517T398 503T451 472T491 421T506 344L505 216Q505 159 539 131T649 102Q692 102 732 116T797 147V19Q762 -1
718 -11T614 -22Q537 -22 480 7T390 87T358 200ZM358 246Q358 376 423 448T611 520Q694 520 746 484T822 380T845 214H459L444 309H722L700 262Q698 341 677 373T605 406Q577 406 554 393T519 347T506 259L358 246Z" />
<glyph unicode="&#xe7;" horiz-adv-x="502" d="M303 -13Q249 -13 201 3T116 51T58 132T37 246Q37 315 57 366T112 452T196 503T302 520Q343 520 386 512T463 488V360Q428 376 395 386T326 397Q263 397 225 366T186 263Q186 188 220 150T333 112Q370 112 404 125T464
152V25Q429 7 391 -3T303 -13ZM163 -133L253 -5H349L297 -133H163Z" />
<glyph unicode="&#xe8;" horiz-adv-x="562" d="M295 -15Q219 -15 161 16T70 106T37 246Q37 378 102 450T290 523Q374 523 425 487T501 382T524 214H139L123 309H401L379 262Q378 343 356 376T284 409Q256 409 234 395T199 349T186 259Q186 187 220 148T331 109Q359
109 386 115T438 131T479 147V19Q443 4 399 -5T295 -15ZM251 565L140 689H286L332 565H251Z" />
<glyph unicode="&#xe9;" horiz-adv-x="562" d="M295 -15Q219 -15 161 16T70 106T37 246Q37 378 102 450T290 523Q374 523 425 487T501 382T524 214H139L123 309H401L379 262Q378 343 356 376T284 409Q256 409 234 395T199 349T186 259Q186 187 220 148T331 109Q359
109 386 115T438 131T479 147V19Q443 4 399 -5T295 -15ZM241 565L288 689H434L323 565H241Z" />
<glyph unicode="&#xea;" horiz-adv-x="562" d="M295 -15Q219 -15 161 16T70 106T37 246Q37 378 102 450T290 523Q374 523 425 487T501 382T524 214H139L123 309H401L379 262Q378 343 356 376T284 409Q256 409 234 395T199 349T186 259Q186 187 220 148T331 109Q359
109 386 115T438 131T479 147V19Q443 4 399 -5T295 -15ZM147 571L234 692H356L443 571H344L295 630L246 571H147Z" />
<glyph unicode="&#xeb;" horiz-adv-x="562" d="M295 -15Q219 -15 161 16T70 106T37 246Q37 378 102 450T290 523Q374 523 425 487T501 382T524 214H139L123 309H401L379 262Q378 343 356 376T284 409Q256 409 234 395T199 349T186 259Q186 187 220 148T331 109Q359
109 386 115T438 131T479 147V19Q443 4 399 -5T295 -15ZM323 572V672H452V572H323ZM140 572V672H268V572H140Z" />
<glyph unicode="&#xec;" horiz-adv-x="332" d="M97 0V499H239V0H97ZM130 563L40 680H144L205 563H130Z" />
<glyph unicode="&#xed;" horiz-adv-x="332" d="M97 0V499H239V0H97ZM131 558L192 675H296L206 558H131Z" />
<glyph unicode="&#xee;" horiz-adv-x="332" d="M97 0V499H239V0H97ZM37 558L145 680H191L299 558H211L168 610L125 558H37Z" />
<glyph unicode="&#xef;" horiz-adv-x="332" d="M97 0V499H239V0H97ZM32 558V658H140V558H32ZM196 558V658H303V558H196Z" />
<glyph unicode="&#xf0;" horiz-adv-x="582" d="M294 -22Q166 -22 102 45T37 251Q37 382 92 451T244 520Q302 520 337 500T396 443L402 364Q382 391 354 405T294 420Q256 420 232 400T197 342T185 251Q185 169 211 133T294 97Q329 97 352 117T386 184T397 313Q397
392 378 451T325 555T252 632T170 691V697H349Q389 670 423 630T483 538T524 427T539 298Q539 137 479 58T294 -22ZM194 543L174 628L504 685L528 607L194 543Z" />
<glyph unicode="&#xf1;" horiz-adv-x="609" d="M66 463Q85 473 116 483T184 502T258 515T328 520Q396 520 444 503T517 446T543 340V0H394V310Q394 329 389 345T372 372T342 390T296 397Q273 397 250 392T215 380V0H66V463ZM194 559H125Q123 597 137 629T177 680T238
699Q264 699 284 690T322 668T356 645T390 635Q407 635 416 649T423 694H496Q498 651 483 620T441 573T384 556Q352 556 330 566T291 588T261 610T232 620Q211 620 202 601T194 559Z" />
<glyph unicode="&#xf2;" horiz-adv-x="590" d="M294 -15Q166 -15 102 53T37 255Q37 398 102 460T294 523Q379 523 436 495T523 407T553 255Q553 122 486 54T294 -15ZM294 104Q331 104 355 121T392 172T405 255Q405 311 393 343T355 390T294 405Q256 405 232 390T197
343T185 255Q185 179 211 142T294 104ZM258 572L147 696H293L339 572H258Z" />
<glyph unicode="&#xf3;" horiz-adv-x="590" d="M294 -15Q166 -15 102 53T37 255Q37 398 102 460T294 523Q379 523 436 495T523 407T553 255Q553 122 486 54T294 -15ZM294 104Q331 104 355 121T392 172T405 255Q405 311 393 343T355 390T294 405Q256 405 232 390T197
343T185 255Q185 179 211 142T294 104ZM249 572L296 696H442L331 572H249Z" />
<glyph unicode="&#xf4;" horiz-adv-x="590" d="M294 -15Q166 -15 102 53T37 255Q37 398 102 460T294 523Q379 523 436 495T523 407T553 255Q553 122 486 54T294 -15ZM294 104Q331 104 355 121T392 172T405 255Q405 311 393 343T355 390T294 405Q256 405 232 390T197
343T185 255Q185 179 211 142T294 104ZM155 578L242 699H364L451 578H352L303 637L254 578H155Z" />
<glyph unicode="&#xf5;" horiz-adv-x="590" d="M294 -15Q166 -15 102 53T37 255Q37 398 102 460T294 523Q379 523 436 495T523 407T553 255Q553 122 486 54T294 -15ZM294 104Q331 104 355 121T392 172T405 255Q405 311 393 343T355 390T294 405Q256 405 232 390T197
343T185 255Q185 179 211 142T294 104ZM187 566H118Q116 604 130 636T170 687T231 706Q257 706 277 697T315 675T349 652T383 642Q400 642 409 656T416 701H489Q491 658 476 627T434 580T377 563Q345 563 323 573T284 595T254 617T225 627Q204 627 195 608T187
566Z" />
<glyph unicode="&#xf6;" horiz-adv-x="590" d="M294 -15Q166 -15 102 53T37 255Q37 398 102 460T294 523Q379 523 436 495T523 407T553 255Q553 122 486 54T294 -15ZM294 104Q331 104 355 121T392 172T405 255Q405 311 393 343T355 390T294 405Q256 405 232 390T197
343T185 255Q185 179 211 142T294 104ZM330 579V679H459V579H330ZM147 579V679H275V579H147Z" />
<glyph unicode="&#xf7;" horiz-adv-x="628" d="M98 211V308H532V211H98ZM260 38V144H370V38H260ZM260 375V481H370V375H260Z" />
<glyph unicode="&#xf8;" horiz-adv-x="601" d="M154 0H19L445 499H581L154 0ZM294 -15Q166 -15 102 53T37 255Q37 398 102 460T294 523Q379 523 436 495T523 407T553 255Q553 122 486 54T294 -15ZM294 104Q331 104 355 121T392 172T405 255Q405 311 393 343T355
390T294 405Q256 405 232 390T197 343T185 255Q185 179 211 142T294 104Z" />
<glyph unicode="&#xf9;" horiz-adv-x="601" d="M304 -15Q234 -15 180 7T96 74T66 193V506H215V205Q215 157 236 134T305 110Q353 110 374 133T395 205V506H535V193Q535 85 473 35T304 -15ZM270 565L159 689H305L351 565H270Z" />
<glyph unicode="&#xfa;" horiz-adv-x="601" d="M304 -15Q234 -15 180 7T96 74T66 193V506H215V205Q215 157 236 134T305 110Q353 110 374 133T395 205V506H535V193Q535 85 473 35T304 -15ZM261 565L308 689H454L343 565H261Z" />
<glyph unicode="&#xfb;" horiz-adv-x="601" d="M304 -15Q234 -15 180 7T96 74T66 193V506H215V205Q215 157 236 134T305 110Q353 110 374 133T395 205V506H535V193Q535 85 473 35T304 -15ZM167 571L254 692H376L463 571H364L315 630L266 571H167Z" />
<glyph unicode="&#xfc;" horiz-adv-x="601" d="M304 -15Q234 -15 180 7T96 74T66 193V506H215V205Q215 157 236 134T305 110Q353 110 374 133T395 205V506H535V193Q535 85 473 35T304 -15ZM342 572V672H471V572H342ZM159 572V672H287V572H159Z" />
<glyph unicode="&#xfd;" horiz-adv-x="593" d="M176 -196Q151 -196 127 -191T86 -178V-57Q102 -63 116 -65T145 -68Q170 -68 188 -57T219 -18T238 57L241 -28L24 506H195L310 151H295L409 506H569L370 -8Q343 -78 312 -119T246 -178T176 -196ZM251 551L298 675H444L333
551H251Z" />
<glyph unicode="&#xfe;" horiz-adv-x="595" d="M214 -185H66V697H214V-185ZM214 119Q233 108 255 103T296 98Q332 98 357 112T395 157T409 239Q409 283 399 315T366 364T302 381Q277 381 252 376T214 357L82 452Q96 465 122 475T181 491T247 502T308 506Q381 506
437 481T525 396T557 234Q557 159 531 101T454 11T333 -22Q318 -22 291 -19T235 -6T184 27L214 119Z" />
<glyph unicode="&#xff;" horiz-adv-x="593" d="M176 -196Q151 -196 127 -191T86 -178V-57Q102 -63 116 -65T145 -68Q170 -68 188 -57T219 -18T238 57L241 -28L24 506H195L310 151H295L409 506H569L370 -8Q343 -78 312 -119T246 -178T176 -196ZM332 558V658H461V558H332ZM149
558V658H277V558H149Z" />
<glyph unicode="&#x2013;" horiz-adv-x="560" d="M69 240V340H489V240H69Z" />
<glyph unicode="&#x2014;" horiz-adv-x="891" d="M79 240V342H812V240H79Z" />
<glyph unicode="&#x2018;" horiz-adv-x="287" d="M139 480L47 676H169L243 480H139Z" />
<glyph unicode="&#x2019;" horiz-adv-x="287" d="M47 480L121 676H243L151 480H47Z" />
<glyph unicode="&#x201a;" horiz-adv-x="329" d="M72 -112L146 84H268L176 -112H72Z" />
<glyph unicode="&#x201c;" horiz-adv-x="453" d="M303 480L210 676H332L406 480H303ZM140 480L48 676H170L244 480H140Z" />
<glyph unicode="&#x201d;" horiz-adv-x="451" d="M210 480L284 676H406L314 480H210ZM48 480L122 676H244L151 480H48Z" />
<glyph unicode="&#x201e;" horiz-adv-x="492" d="M235 -112L309 84H431L338 -112H235ZM72 -112L146 84H268L176 -112H72Z" />
<glyph unicode="&#x2022;" horiz-adv-x="496" d="M248 166Q203 166 166 187T108 246T86 328Q86 373 107 409T166 467T248 489Q293 489 329 468T387 410T409 328Q409 283 388 246T330 188T248 166Z" />
<glyph unicode="&#x2039;" horiz-adv-x="384" d="M200 64L31 255L200 445H345L164 255L345 64H200Z" />
<glyph unicode="&#x203a;" horiz-adv-x="402" d="M47 64L228 255L47 445H192L361 255L192 64H47Z" />
</font>
</defs>
</svg>
