<?xml version="1.0" standalone="no"?>
<!DOCTYPE svg PUBLIC "-//W3C//DTD SVG 20010904//EN"
 "http://www.w3.org/TR/2001/REC-SVG-20010904/DTD/svg10.dtd">
<svg version="1.0" xmlns="http://www.w3.org/2000/svg"
 width="802.000000pt" height="802.000000pt" viewBox="0 0 802.000000 802.000000"
 preserveAspectRatio="xMidYMid meet">
<metadata>
Created by potrace 1.14, written by Peter Selinger 2001-2017
</metadata>
<g transform="translate(0.000000,802.000000) scale(0.100000,-0.100000)"
fill="#000000" stroke="none">
<path d="M3698 8015 c-2 -2 -41 -6 -88 -10 -47 -3 -116 -11 -155 -16 -38 -6
-92 -13 -120 -16 -43 -5 -393 -75 -435 -87 -206 -60 -348 -109 -480 -168 -36
-16 -67 -29 -70 -29 -3 0 -18 -9 -35 -19 -16 -10 -59 -33 -95 -51 -36 -18 -84
-45 -107 -61 -23 -15 -44 -28 -47 -28 -8 0 -140 -90 -201 -138 -5 -4 -23 -18
-40 -30 -76 -58 -94 -73 -220 -192 -58 -54 -135 -137 -185 -199 -19 -23 -45
-55 -58 -69 -12 -15 -32 -43 -44 -62 -12 -19 -25 -37 -28 -40 -13 -11 -94
-137 -131 -203 -50 -92 -149 -297 -149 -310 0 -2 -7 -21 -15 -41 -8 -20 -16
-39 -16 -43 -1 -5 -5 -16 -11 -26 -5 -10 -11 -26 -13 -35 -2 -9 -17 -64 -33
-122 -17 -58 -33 -118 -36 -135 -2 -16 -9 -55 -15 -85 -18 -94 -22 -123 -26
-172 -1 -26 -5 -50 -8 -55 -13 -22 2 -490 18 -573 3 -14 8 -45 11 -70 3 -25 8
-52 10 -60 2 -8 10 -44 19 -80 9 -35 17 -71 19 -80 2 -8 6 -22 9 -30 4 -8 8
-26 11 -40 5 -27 56 -176 77 -225 7 -16 13 -32 14 -35 14 -42 125 -273 134
-280 4 -3 13 -20 20 -37 8 -18 18 -33 24 -33 6 0 8 -3 4 -6 -3 -3 -2 -11 4
-18 34 -40 79 -106 79 -115 0 -6 4 -11 8 -11 5 0 21 -17 35 -37 25 -35 227
-246 227 -237 0 4 34 -23 70 -56 9 -8 24 -19 32 -25 59 -39 164 -111 168 -115
16 -16 278 -148 370 -187 164 -68 354 -135 530 -186 30 -9 100 -29 155 -46 55
-16 136 -39 180 -51 44 -12 98 -28 120 -35 22 -7 60 -18 85 -25 119 -35 323
-106 412 -143 69 -29 193 -92 196 -99 2 -5 9 -8 15 -8 22 0 171 -112 233 -176
109 -111 192 -259 219 -391 3 -15 8 -37 10 -48 14 -59 16 -75 21 -130 10 -113
3 -291 -13 -318 -2 -4 -7 -20 -9 -35 -8 -45 -44 -143 -80 -216 -72 -143 -151
-242 -384 -480 -256 -261 -254 -257 -321 -399 -13 -28 -17 -134 -6 -172 14
-50 31 -84 70 -141 33 -48 53 -67 99 -89 81 -40 212 -43 358 -9 14 3 34 7 45
9 24 4 79 23 120 40 50 21 100 40 107 40 4 0 13 6 19 13 7 6 18 12 24 12 24 0
356 180 410 222 6 5 42 29 80 55 67 44 295 211 305 223 3 3 27 24 55 45 27 22
57 47 66 55 9 8 47 42 85 75 181 157 441 423 581 594 16 19 39 46 53 61 14 15
32 38 40 50 8 12 24 32 34 43 33 38 192 253 232 313 21 33 42 60 46 62 5 2 8
7 8 12 0 5 21 39 46 77 25 37 55 84 65 103 11 19 33 58 50 85 16 28 33 58 36
68 3 9 9 17 14 17 5 0 9 4 9 10 0 5 19 45 43 87 23 43 65 128 94 188 97 208
150 333 145 348 -1 4 3 7 8 7 6 0 10 6 10 13 0 8 15 56 34 108 19 52 44 128
56 169 12 41 26 86 30 100 5 14 12 36 15 50 2 14 16 72 30 130 14 58 27 116
30 130 11 56 13 67 20 109 7 45 13 88 20 151 2 19 5 35 5 35 2 0 6 28 16 140
16 161 10 587 -10 770 -11 98 -25 201 -32 240 -3 17 -7 41 -9 55 -5 40 -14 93
-20 122 -4 15 -8 39 -10 55 -2 15 -11 60 -20 98 -9 39 -18 81 -21 95 -6 34
-74 281 -81 300 -4 8 -7 17 -8 20 -1 3 -4 12 -8 20 -3 8 -16 47 -28 85 -65
205 -214 517 -347 727 -22 36 -113 169 -129 188 -6 8 -33 42 -60 75 -26 33
-55 69 -63 79 -23 29 -239 246 -285 286 -22 19 -65 54 -95 78 -30 23 -65 50
-76 60 -12 9 -30 23 -40 29 -11 7 -51 34 -89 60 -39 27 -88 57 -110 68 -22 11
-42 23 -45 27 -6 8 -264 138 -274 138 -4 0 -31 11 -59 24 -50 23 -245 92 -283
101 -11 2 -59 15 -107 29 -49 14 -100 27 -115 30 -15 2 -49 9 -77 16 -27 6
-68 14 -90 16 -22 3 -51 8 -65 10 -40 9 -106 17 -235 31 -48 5 -582 12 -587 8z"/>
</g>
</svg>
